<svg width="212" height="60" viewBox="0 0 212 60" fill="none" xmlns="http://www.w3.org/2000/svg">
<g clip-path="url(#clip0_146_101)">
<path d="M90.5308 19.2944H94.2943V32.7021C94.2943 35.7894 95.9701 37.4948 99.028 37.4948C102.086 37.4948 103.791 35.76 103.791 32.7021V19.2944H107.555V32.9374C107.555 37.9653 104.262 41.1408 99.028 41.1408C93.8238 41.1408 90.5308 37.9947 90.5308 32.9374V19.2944Z" fill="white"/>
<path d="M109.791 40.7879V26.263H113.113L113.407 28.1448C114.318 26.6746 116.083 25.8219 118.053 25.8219C121.699 25.8219 123.58 28.086 123.58 31.8495V40.7879H119.993V32.702C119.993 30.2616 118.788 29.0856 116.935 29.0856C114.73 29.0856 113.378 30.6144 113.378 32.9667V40.7877H109.791V40.7879Z" fill="white"/>
<path d="M125.844 21.1764C125.844 19.9709 126.814 19.03 128.049 19.03C129.226 19.03 130.196 19.9709 130.196 21.1764C130.196 22.3818 129.225 23.3521 128.049 23.3521C126.814 23.3521 125.844 22.3818 125.844 21.1764ZM126.256 26.263H129.843V40.7879H126.256V26.263Z" fill="white"/>
<path d="M133.342 26.263V24.4988C133.342 20.5589 135.429 18.9122 138.575 18.9122C139.134 18.9122 139.81 18.9416 140.428 19.0593V22.1173H139.163C137.34 22.1173 136.899 23.0582 136.899 24.4989V26.2631H140.369V29.2622H136.899V40.788H133.342V29.2622H131.254V26.2631L133.342 26.263Z" fill="white"/>
<path d="M148.277 25.8513C152.776 25.8513 156.04 28.9681 156.04 33.4959C156.04 38.024 152.776 41.1407 148.277 41.1407C143.779 41.1407 140.515 38.024 140.515 33.4959C140.515 28.9681 143.779 25.8513 148.277 25.8513ZM148.277 37.9358C150.747 37.9358 152.453 36.1422 152.453 33.4959C152.453 30.8498 150.747 29.0562 148.277 29.0562C145.808 29.0562 144.102 30.8498 144.102 33.4959C144.102 36.1423 145.808 37.9358 148.277 37.9358Z" fill="white"/>
<path d="M167.154 29.5267H165.831C163.243 29.5267 161.626 30.9086 161.626 33.7313V40.7879H158.039V26.2924H161.42L161.626 28.4094C162.244 26.9687 163.626 25.9984 165.566 25.9984C166.066 25.9984 166.566 26.0573 167.154 26.2042L167.154 29.5267Z" fill="white"/>
<path d="M79.3305 36.6856H74.4892C74.4794 36.6856 74.47 36.6847 74.4605 36.6837C75.6305 34.6307 76.2991 32.255 76.2991 29.723C76.2991 27.4217 75.7468 25.2494 74.7677 23.3313C74.7968 23.3206 74.8282 23.3142 74.8621 23.3142H79.3305C80.3366 23.3142 80.7437 21.9628 79.9183 21.3875L63.6788 10.6088C62.8029 9.99842 61.6395 9.99842 60.7637 10.6088L44.5243 21.3877C43.6987 21.9629 44.1058 23.3143 45.1119 23.3143H49.5916C49.6218 23.3143 49.65 23.3195 49.6765 23.3282C48.6964 25.2471 48.1434 27.4206 48.1434 29.7232C48.1434 32.2554 48.8122 34.6313 49.9825 36.6845C49.9764 36.6849 49.9707 36.6858 49.9644 36.6858H45.1119C44.1058 36.6858 43.6987 38.0372 44.5243 38.6124L60.7637 49.3912C61.6395 50.0015 62.8029 50.0015 63.6788 49.3912L79.9183 38.6124C80.7437 38.0369 80.3366 36.6856 79.3305 36.6856ZM66.4668 38.2398C66.409 38.3805 66.2054 38.3656 66.1703 38.2176C65.7507 36.4479 64.4686 34.7745 62.2625 34.7745C60.0562 34.7745 58.7743 36.4479 58.3546 38.2175C58.3196 38.3654 58.1158 38.3807 58.0581 38.2402C57.8394 37.7079 57.7186 37.1251 57.7186 36.5139C57.7186 34.0044 59.753 31.9701 62.2624 31.9701C64.7707 31.9701 66.7939 33.983 66.8062 36.4913C66.8092 37.1105 66.6883 37.7011 66.4668 38.2398ZM70.0659 36.3081C69.76 37.0342 69.3474 37.684 68.8535 38.2471C68.6709 38.4553 68.3327 38.2552 68.4319 37.9972C68.4354 37.9881 68.4383 37.9802 68.4405 37.9741C69.5236 34.846 67.9802 31.3791 64.8539 30.0863C61.7267 28.7931 58.153 30.1456 56.6717 33.1107C56.6692 33.1158 56.6662 33.1222 56.6626 33.1298C56.5469 33.3809 56.1658 33.2839 56.1867 33.0086C56.2433 32.2648 56.4192 31.5172 56.7249 30.7912C58.261 27.1434 62.4928 25.4214 66.1768 26.9449C69.8609 28.4685 71.602 32.6606 70.0659 36.3081ZM72.8741 31.4697C72.8171 31.8851 72.2177 31.8939 72.1473 31.48C72.0458 30.8836 71.881 30.2885 71.649 29.7029C69.8498 25.159 64.4195 22.7429 59.8615 24.5113C55.3036 26.2799 53.344 31.5632 55.1432 36.1071C55.3752 36.6928 55.6628 37.2403 55.9976 37.746C56.2301 38.0971 55.7843 38.4937 55.4573 38.2274C54.0781 37.1036 52.9594 35.6239 52.2599 33.8573C50.0843 28.3625 52.7886 22.1743 58.3005 20.0357C63.8123 17.8972 70.0443 20.6179 72.22 26.1128C72.9195 27.8794 73.1145 29.7173 72.8741 31.4697Z" fill="white"/>
</g>
<defs>
<clipPath id="clip0_146_101">
<rect width="123.265" height="40" fill="white" transform="translate(44 10)"/>
</clipPath>
</defs>
</svg>
