<svg width="212" height="60" viewBox="0 0 212 60" fill="none" xmlns="http://www.w3.org/2000/svg">
<path d="M136.646 46.6631C136.646 48.4371 137.926 49.7044 139.631 49.7044C141.337 49.7044 142.616 48.4371 142.616 46.6631V34.3295C142.616 29.3875 145.43 26.6842 149.779 26.6842C153.66 26.6842 155.877 29.0074 155.877 33.0623V46.6631C155.877 48.4371 157.156 49.7044 158.861 49.7044C160.567 49.7044 161.846 48.4371 161.846 46.6631V32.471C161.846 25.7128 157.838 21.1932 151.186 21.1932C147.392 21.1932 144.833 22.5026 143.255 24.699C142.957 25.0793 142.573 24.9947 142.573 24.4879V13.0412C142.573 11.2672 141.294 10 139.589 10C137.883 10 136.604 11.2672 136.604 13.0412V46.6631H136.646ZM111.788 29.5987C111.788 33.9071 114.773 36.188 118.567 37.2861L123.556 38.7223C125.731 39.3136 126.84 40.0316 126.84 41.51C126.84 43.5375 125.049 44.5935 121.893 44.5935C119.719 44.5935 118.056 43.7486 116.819 42.4815C115.753 41.4255 114.09 41.2144 112.769 42.1859C111.489 43.1574 111.234 45.0581 112.427 46.3675C114.645 48.7751 118.312 49.9577 121.893 49.9577C127.223 49.9577 132.724 47.4235 132.724 41.2144C132.724 36.8215 129.91 34.6674 125.56 33.4002L120.572 31.9641C118.354 31.2883 117.672 30.528 117.672 29.2609C117.672 27.5713 119.335 26.5153 121.936 26.5153C124.111 26.5153 125.731 27.3601 127.181 28.3738C128.63 29.4298 130.464 29.2609 131.359 28.0359C132.255 26.8955 132.297 25.2481 130.933 24.0233C128.801 22.207 125.944 21.1088 121.936 21.1088C116.521 21.1932 111.788 24.1921 111.788 29.5987ZM84.499 35.5966C84.499 30.359 88.038 26.6842 93.24 26.6842C98.3566 26.6842 101.981 30.4435 101.981 35.5966C101.981 40.8343 98.442 44.509 93.24 44.509C88.1233 44.509 84.499 40.792 84.499 35.5966ZM78.4016 35.5966C78.4016 43.7486 84.4137 50 92.2592 50C96.5232 50 99.38 48.3949 101.256 45.8606C101.597 45.4382 101.938 45.565 101.938 46.0718V46.6209C101.938 48.3949 103.218 49.6621 104.923 49.6621C106.629 49.6621 107.908 48.3949 107.908 46.6209V24.5301C107.908 22.7561 106.629 21.4889 104.923 21.4889C103.218 21.4889 101.938 22.7561 101.938 24.5301V24.9525C101.938 25.4594 101.597 25.6283 101.256 25.1636C99.38 22.6716 96.5233 21.151 92.3019 21.151C84.499 21.1932 78.4016 27.5713 78.4016 35.5966ZM68.5094 46.6631C68.5094 48.4371 69.7885 49.7044 71.4941 49.7044C73.1996 49.7044 74.4789 48.4371 74.4789 46.6631V13.0412C74.4789 11.2672 73.1996 10 71.4941 10C69.7885 10 68.5094 11.2672 68.5094 13.0412V46.6631ZM55.206 49.7044C56.9116 49.7044 58.1907 48.4371 58.1907 46.6631V27.9936C58.1907 27.6558 58.4039 27.4445 58.745 27.4445H62.0709C63.7337 27.4445 65.013 26.2196 65.013 24.6567C65.013 23.094 63.7764 21.8268 62.1135 21.8268H58.7877C58.4465 21.8268 58.2334 21.6156 58.2334 21.2777V19.8838C58.2334 17.3495 59.6405 15.8712 62.1135 15.66C64.1175 15.491 65.2261 14.4351 65.2261 12.7455C65.2261 11.2249 64.2455 10 61.9856 10C56.3573 10 52.2213 14.3083 52.2213 20.095V21.32C52.2213 21.6579 52.0081 21.8691 51.6669 21.8691H50.9421C49.2792 21.8268 48 23.0517 48 24.6567C48 26.2619 49.2792 27.4445 50.9421 27.4445H51.6669C52.0081 27.4445 52.2213 27.6558 52.2213 27.9936V46.6631C52.2213 48.4371 53.5004 49.7044 55.206 49.7044Z" fill="white"/>
</svg>
