<svg width="214" height="60" viewBox="0 0 214 60" fill="none" xmlns="http://www.w3.org/2000/svg">
<g clip-path="url(#clip0_147_149)">
<path d="M76.7574 16H70.9409V43.3188H89.7614V38.9311H76.7574V16Z" fill="white"/>
<path d="M47 16V43.3188H65.0519V38.9287H52.8165V31.2858H63.0737V26.8981H52.8165V20.3901H65.0519V16H47Z" fill="white"/>
<path d="M164.518 31.2304C163.574 30.0594 161.786 28.8305 159.051 27.4692L157.044 26.4741C155.962 25.9392 155.145 25.4958 154.548 25.1175C154.025 24.7898 153.603 24.3947 153.299 23.9465C153.02 23.5297 152.88 23.1345 152.88 22.7755C152.88 22.2285 153.181 21.6744 153.805 21.0816C154.427 20.4913 155.456 20.1901 156.868 20.1901C157.593 20.1901 158.328 20.2624 159.056 20.4021C159.774 20.5371 161.188 20.966 163.256 21.6719L164.304 22.031V17.13L163.713 16.9758C161.256 16.3277 158.885 16 156.663 16C154.752 16 153.133 16.3156 151.847 16.9373C150.543 17.5734 149.488 18.4649 148.714 19.5901C147.921 20.7347 147.519 21.9828 147.519 23.3008C147.519 24.773 148.025 26.1319 149.027 27.3391C149.986 28.4908 151.765 29.7052 154.461 31.0473L156.4 32.0279C158.68 33.1604 159.504 33.864 159.786 34.2399C160.176 34.7964 160.369 35.3771 160.369 36.0157C160.369 36.8421 160.008 37.5433 159.261 38.1577C158.029 39.1721 155.943 39.3408 153.227 38.8564C152.247 38.6733 150.639 38.1336 148.454 37.2493L147.367 36.8084V42.0587L147.965 42.208C149.909 42.6972 151.398 43.008 152.391 43.1357C153.338 43.2562 154.345 43.3188 155.384 43.3188C158.793 43.3188 161.434 42.5478 163.231 41.0298C165.067 39.4781 166 37.6011 166 35.4518C165.998 33.8712 165.499 32.452 164.518 31.2304Z" fill="white"/>
<path d="M107.266 27.4692L105.257 26.4741C104.172 25.9392 103.358 25.4958 102.76 25.1175C102.235 24.7898 101.816 24.3947 101.512 23.9465C101.235 23.5297 101.093 23.1369 101.093 22.7755C101.093 22.2285 101.397 21.6744 102.018 21.084C102.64 20.4937 103.669 20.1925 105.081 20.1925C105.806 20.1925 106.541 20.2648 107.269 20.4046C107.987 20.5419 109.398 20.9684 111.468 21.6743L112.516 22.0334V17.13L111.926 16.9758C109.468 16.3277 107.095 16 104.876 16C102.965 16 101.346 16.3156 100.059 16.9373C98.7534 17.5734 97.7005 18.4673 96.927 19.5877C96.1343 20.7322 95.7319 21.9804 95.7319 23.3008C95.7319 24.773 96.2379 26.1319 97.2402 27.3391C98.1992 28.4908 99.9774 29.7028 102.674 31.0473L104.613 32.0279C106.89 33.1604 107.717 33.864 107.999 34.2399C108.389 34.7964 108.579 35.3771 108.579 36.0156C108.579 36.8421 108.218 37.5433 107.473 38.1577C106.242 39.1721 104.155 39.3407 101.44 38.8564C100.457 38.6733 98.8522 38.1336 96.6668 37.2493L95.5801 36.8084V42.0587L96.1776 42.208C98.1245 42.6972 99.6136 43.008 100.604 43.1357C101.551 43.2562 102.558 43.3164 103.596 43.3164C107.006 43.3164 109.647 42.5454 111.444 41.0274C113.283 39.4757 114.213 37.5987 114.213 35.4494C114.213 33.8688 113.714 32.4496 112.731 31.228C111.786 30.0594 109.998 28.8305 107.266 27.4692Z" fill="white"/>
<path d="M123.848 16H117.121L125.265 29.498L128.788 24.5706L123.848 16Z" fill="white"/>
<path d="M127.554 31.7195V43.3188H133.368V31.9677L144.551 16H138.792L127.554 31.7195Z" fill="white"/>
</g>
<defs>
<clipPath id="clip0_147_149">
<rect width="119" height="28" fill="white" transform="translate(47 16)"/>
</clipPath>
</defs>
</svg>
