<svg width="24" height="24" viewBox="0 0 24 24" fill="none" xmlns="http://www.w3.org/2000/svg">
<mask id="mask0_594_124" style="mask-type:luminance" maskUnits="userSpaceOnUse" x="1" y="1" width="22" height="22">
<path d="M23 1H1V23H23V1Z" fill="white"/>
</mask>
<g mask="url(#mask0_594_124)">
<path d="M17.0162 14.1835C16.744 14.0469 15.4047 13.3887 15.1554 13.2971C14.9052 13.2064 14.7237 13.1614 14.5412 13.4346C14.3607 13.7069 13.8382 14.3201 13.6795 14.5016C13.521 14.684 13.3615 14.706 13.0892 14.5704C12.817 14.4329 11.9389 14.1459 10.8984 13.2182C10.089 12.4959 9.54174 11.604 9.38316 11.3309C9.22457 11.0586 9.36666 10.911 9.50232 10.7754C9.62519 10.6534 9.77553 10.4572 9.91119 10.2987C10.0477 10.1392 10.0927 10.0255 10.1844 9.84306C10.275 9.66156 10.2302 9.50304 10.1614 9.36646C10.0927 9.22987 9.54816 7.88879 9.32174 7.34337C9.09991 6.81262 8.87532 6.88504 8.70849 6.87587C8.54991 6.86854 8.36841 6.86671 8.18599 6.86671C8.00449 6.86671 7.70932 6.93454 7.45999 7.20771C7.21066 7.47996 6.50666 8.13904 6.50666 9.48012C6.50666 10.8202 7.48291 12.1155 7.61857 12.2979C7.75516 12.4794 9.53991 15.2312 12.2725 16.411C12.9224 16.6915 13.4294 16.8592 13.8254 16.9839C14.478 17.192 15.072 17.1627 15.5404 17.0921C16.0639 17.0142 17.1519 16.433 17.3792 15.7969C17.6065 15.1607 17.6065 14.6152 17.5379 14.5016C17.47 14.3879 17.2894 14.3201 17.0162 14.1835ZM12.046 20.9696H12.0424C10.4196 20.9698 8.82681 20.5335 7.43066 19.7064L7.09974 19.5102L3.67049 20.4104L4.58532 17.0664L4.36991 16.7236C3.46281 15.2791 2.98293 13.6076 2.98574 11.9019C2.98666 6.90612 7.05207 2.84162 12.0497 2.84162C14.4697 2.84162 16.7449 3.78579 18.4554 5.49812C19.2993 6.33835 19.9682 7.33762 20.4235 8.43809C20.8787 9.53857 21.1111 10.7184 21.1074 11.9092C21.1045 16.9051 17.04 20.9696 12.046 20.9696ZM19.758 4.19737C18.748 3.18071 17.5463 2.37461 16.2225 1.82577C14.8987 1.27693 13.4791 0.996261 12.046 1.00004C6.03732 1.00004 1.14691 5.89045 1.14416 11.901C1.14416 13.8224 1.64557 15.6979 2.59982 17.3506L1.05249 23L6.83207 21.4839C8.43036 22.3546 10.2214 22.811 12.0415 22.8112H12.046C18.0539 22.8112 22.9452 17.9207 22.948 11.9092C22.9524 10.4768 22.6728 9.05762 22.1252 7.7339C21.5777 6.41017 20.7731 5.20815 19.758 4.19737Z" fill="white"/>
</g>
</svg>
