<svg width="159" height="40" viewBox="0 0 159 40" fill="none" xmlns="http://www.w3.org/2000/svg">
<g clip-path="url(#clip0_68_220)">
<path d="M20.2563 13.3856C20.2302 13.4118 19.9687 13.6993 20.1517 13.9346C20.5962 14.4836 21.9295 14.7974 23.289 14.5098C24.0994 14.3268 25.1191 13.5163 26.1387 12.7059C27.2367 11.8431 28.3086 10.9804 29.3805 10.6405C30.5308 10.2745 31.2628 10.4314 31.7596 10.5882C32.2824 10.7451 32.9099 11.1111 33.9295 11.8431C35.8119 13.2549 43.3674 19.8693 44.7007 20.9934C45.7465 20.5229 50.7661 18.4836 57.119 17.098C56.57 13.6993 54.5308 10.4836 51.3936 7.9477C47.0275 9.77776 41.3543 10.8758 36.1256 8.33985C36.0994 8.33985 33.2759 7.00652 30.5047 7.05881C26.374 7.16339 24.57 8.94116 22.6877 10.8497L20.2563 13.3856Z" fill="white"/>
<path d="M44.3609 21.6994C44.2824 21.6209 35.472 13.9085 33.4589 12.4183C32.3086 11.5556 31.655 11.3203 30.9752 11.2419C30.6354 11.1896 30.1386 11.268 29.7988 11.3464C28.8576 11.6079 27.655 12.4183 26.5831 13.2549C25.4589 14.1438 24.4131 14.9804 23.4458 15.1896C22.1909 15.4772 20.6746 15.1373 19.9687 14.6667C19.6811 14.4837 19.4981 14.2484 19.3935 14.0392C19.1321 13.4379 19.6027 12.9673 19.6811 12.8889L22.1125 10.2484C22.4001 9.96082 22.6877 9.67323 22.9752 9.4118C22.1909 9.51637 21.4589 9.72552 20.753 9.90853C19.8641 10.1438 19.0275 10.3791 18.1648 10.3791C17.7988 10.3791 15.8903 10.0654 15.5243 9.96082C13.3282 9.35951 10.8184 8.78434 7.94256 7.42487C4.49158 9.98696 2.24322 13.1504 1.56348 16.7059C2.06021 16.8366 3.3674 17.1242 3.70727 17.2026C11.5243 18.9543 13.9556 20.7321 14.4001 21.0981C14.8707 20.5752 15.5765 20.2353 16.3347 20.2353C17.1975 20.2353 17.9818 20.6798 18.4524 21.3334C18.8968 20.9674 19.5243 20.6798 20.3086 20.6798C20.6746 20.6798 21.0406 20.7582 21.4328 20.8628C22.3216 21.1765 22.7661 21.7517 23.0014 22.2745C23.289 22.1438 23.655 22.0392 24.0994 22.0392C24.5177 22.0392 24.9622 22.1438 25.4066 22.3268C26.8445 22.9543 27.0798 24.366 26.9491 25.4379C27.0537 25.4379 27.1582 25.4118 27.2628 25.4118C28.9622 25.4118 30.3739 26.7974 30.3739 28.5229C30.3739 29.0458 30.2432 29.5425 30.0079 29.987C30.4785 30.2484 31.655 30.8497 32.7007 30.719C33.5373 30.6144 33.8511 30.3268 33.9556 30.17C34.0341 30.0654 34.1125 29.9347 34.0341 29.8301L31.838 27.3726C31.838 27.3726 31.472 27.0327 31.6027 26.902C31.7334 26.7713 31.9426 26.9543 32.0994 27.085C33.2236 28.0262 34.5831 29.4379 34.5831 29.4379C34.6092 29.4641 34.6877 29.6209 35.2105 29.7255C35.655 29.804 36.4132 29.7517 36.9622 29.3072C37.0929 29.2026 37.2236 29.0458 37.3543 28.9151L37.3282 28.9412C37.9033 28.2092 37.2759 27.4772 37.2759 27.4772L34.6877 24.5752C34.6877 24.5752 34.3216 24.2353 34.4524 24.1046C34.5569 23.9739 34.7922 24.1569 34.9752 24.2876C35.7857 24.9673 36.936 26.1177 38.0602 27.2157C38.2694 27.3726 39.2367 27.9739 40.5439 27.1373C41.3282 26.6144 41.485 25.987 41.4589 25.5164C41.4066 24.8889 40.9099 24.4445 40.9099 24.4445L37.3805 20.9151C37.3805 20.9151 37.0145 20.6013 37.1452 20.4445C37.2498 20.3138 37.485 20.4968 37.6419 20.6275C38.7661 21.5687 41.7988 24.3399 41.7988 24.3399C41.8511 24.366 42.8968 25.1242 44.1779 24.2876C44.6484 24 44.936 23.5556 44.9622 23.0327C44.9883 22.2223 44.3609 21.6994 44.3609 21.6994Z" fill="white"/>
<path d="M27.289 26.1699C26.74 26.1699 26.1386 26.4836 26.0602 26.4313C26.0079 26.4052 26.0864 26.196 26.1386 26.0653C26.1909 25.9346 26.8968 23.7908 25.1713 23.0326C23.838 22.4575 23.0014 23.1111 22.74 23.3987C22.6615 23.4771 22.6354 23.4771 22.6354 23.3725C22.6092 22.9804 22.4262 21.9346 21.2759 21.5686C19.6288 21.0719 18.5569 22.2222 18.2955 22.6405C18.1648 21.6993 17.3805 20.9673 16.4132 20.9673C15.3413 20.9673 14.5047 21.83 14.4785 22.8758C14.4785 23.9477 15.3413 24.7843 16.387 24.7843C16.9099 24.7843 17.3805 24.5751 17.7203 24.2614C17.7203 24.2614 17.7465 24.2875 17.7203 24.3137C17.6419 24.7843 17.4851 26.5098 19.289 27.2157C20.021 27.5032 20.6223 27.2941 21.1452 26.9281C21.302 26.8235 21.3282 26.8758 21.302 27.0065C21.2236 27.4509 21.3282 28.3921 22.6615 28.9411C23.6811 29.3594 24.2824 28.9411 24.6746 28.5751C24.8576 28.4183 24.8837 28.4444 24.9099 28.6797C24.9622 29.9607 26.0341 30.9804 27.3151 30.9804C28.6485 30.9804 29.7203 29.9085 29.7203 28.5751C29.6942 27.2679 28.6223 26.196 27.289 26.1699Z" fill="white"/>
<path d="M29.407 0.235352C45.1976 0.235486 58.0074 8.62748 58.0076 18.9541V20.0527C58.0073 30.9806 46.8183 39.8426 29.407 39.8428C11.9954 39.8428 0.805683 30.9807 0.80542 20.0527V18.9541C0.805589 8.6274 13.6162 0.235352 29.407 0.235352ZM29.407 1.33301C21.2764 1.33301 13.9818 3.58147 8.90991 7.16309L7.96851 7.89551C4.88372 10.3529 2.81868 13.3332 2.19116 16.6533L1.98218 17.752C1.92993 18.1439 1.90309 18.5358 1.90308 18.9277C1.90308 28.6532 14.2174 36.5225 29.407 36.5225C44.5963 36.5223 56.9099 28.6534 56.9099 18.9541C56.9099 18.6405 56.9097 18.353 56.8835 18.0654L56.7009 16.8623C56.1257 13.673 54.1909 10.7191 51.3416 8.26172L50.3474 7.5293C45.3017 3.73864 37.7988 1.33308 29.407 1.33301Z" fill="white"/>
<path d="M156.073 5.98693C155.027 4.67974 153.459 4.02615 151.341 4.02615C149.224 4.02615 147.655 4.67974 146.609 5.98693C145.563 7.29412 145.041 8.83661 145.041 10.5882C145.041 12.366 145.563 13.9346 146.609 15.2157C147.655 16.4967 149.224 17.1503 151.341 17.1503C153.459 17.1503 155.027 16.4967 156.073 15.2157C157.119 13.9346 157.642 12.3922 157.642 10.5882C157.642 8.78432 157.119 7.29412 156.073 5.98693ZM153.511 13.4641C153.014 14.1438 152.282 14.4575 151.341 14.4575C150.4 14.4575 149.668 14.1177 149.171 13.4641C148.675 12.7843 148.413 11.8431 148.413 10.6144C148.413 9.38563 148.675 8.44445 149.171 7.76471C149.668 7.11112 150.4 6.77124 151.341 6.77124C152.282 6.77124 153.014 7.11112 153.511 7.76471C154.008 8.41831 154.269 9.38563 154.269 10.6144C154.269 11.8431 154.008 12.7843 153.511 13.4641ZM129.537 4.8889C128.492 4.36602 127.289 4.07844 125.929 4.07844C123.838 4.07844 122.374 4.62745 121.511 5.69935C120.962 6.40523 120.675 7.29412 120.596 8.36602H123.707C123.786 7.89543 123.943 7.50328 124.178 7.24184C124.492 6.87582 125.041 6.66667 125.825 6.66667C126.505 6.66667 127.027 6.77125 127.394 6.95425C127.76 7.13726 127.916 7.50327 127.916 8.00001C127.916 8.41831 127.681 8.73203 127.21 8.91504C126.949 9.01961 126.531 9.12419 125.929 9.20262L124.831 9.33334C123.577 9.4902 122.635 9.75164 121.982 10.1177C120.805 10.7974 120.204 11.8954 120.204 13.4118C120.204 14.5882 120.57 15.4771 121.302 16.1307C122.034 16.7582 122.975 17.0458 124.099 17.098C131.158 17.4118 131.08 13.3856 131.132 12.549V7.92157C131.106 6.45752 130.583 5.43792 129.537 4.8889ZM127.89 11.9216C127.864 12.9935 127.55 13.7516 126.975 14.1438C126.374 14.5621 125.72 14.7451 125.014 14.7451C124.57 14.7451 124.178 14.6144 123.89 14.3791C123.577 14.1438 123.42 13.7255 123.42 13.1765C123.42 12.549 123.681 12.1046 124.178 11.817C124.492 11.634 124.962 11.5033 125.668 11.3726L126.4 11.2418C126.766 11.1634 127.054 11.085 127.263 11.0065C127.472 10.9281 127.681 10.8235 127.89 10.6928V11.9216ZM113.459 6.84968C114.269 6.84968 114.844 7.11112 115.237 7.60785C115.498 7.97386 115.655 8.39216 115.733 8.86275H119.21C119.027 7.11111 118.4 5.88236 117.38 5.20262C116.335 4.52288 115.001 4.15687 113.38 4.15687C111.472 4.15687 109.956 4.73203 108.884 5.9085C107.786 7.08497 107.263 8.73203 107.263 10.8497C107.263 12.7059 107.76 14.2484 108.753 15.4248C109.746 16.6013 111.263 17.1765 113.354 17.1765C115.446 17.1765 117.014 16.4706 118.086 15.0588C118.766 14.1961 119.132 13.2549 119.21 12.2876H115.707C115.629 12.9412 115.446 13.4641 115.106 13.8824C114.766 14.2745 114.217 14.4837 113.407 14.4837C112.282 14.4837 111.524 13.9608 111.106 12.9412C110.871 12.3922 110.766 11.6601 110.766 10.7712C110.766 9.88236 110.871 9.0719 111.106 8.49674C111.524 7.3987 112.309 6.84968 113.459 6.84968ZM106.295 4.13072C99.1582 4.13072 99.5765 10.4575 99.5765 10.4575V16.8889H102.818V10.8758C102.818 9.88236 102.949 9.15033 103.184 8.67975C103.629 7.84314 104.492 7.42484 105.799 7.42484C105.903 7.42484 106.034 7.42484 106.191 7.45098C106.348 7.45098 106.531 7.47713 106.74 7.50328V4.20916C106.609 4.20916 106.505 4.18301 106.452 4.18301C106.4 4.13072 106.348 4.13072 106.295 4.13072ZM96.9883 6.53595C96.4393 5.69935 95.7072 5.09804 94.8706 4.70589C94.0079 4.31373 93.0406 4.13072 91.9687 4.13072C90.1647 4.13072 88.7007 4.70588 87.5765 5.83007C86.4523 6.98039 85.8772 8.60131 85.8772 10.7451C85.8772 13.0196 86.5046 14.6667 87.7595 15.6863C89.0144 16.7059 90.4523 17.2026 92.0994 17.2026C94.0863 17.2026 95.6288 16.6013 96.7268 15.3987C97.3281 14.7712 97.6942 14.1438 97.851 13.5425H94.4C94.2693 13.7255 94.1125 13.9085 93.9556 14.0392C93.485 14.4052 92.8837 14.536 92.1517 14.536C91.4719 14.536 90.9229 14.4314 90.4262 14.1177C89.6157 13.6209 89.1713 12.7843 89.119 11.5556H98.0863C98.0863 10.4837 98.0602 9.6732 97.9817 9.09804C97.8249 8.10458 97.485 7.26798 96.9883 6.53595ZM89.1713 9.38562C89.2759 8.57517 89.5634 7.94772 90.034 7.47713C90.4785 7.00654 91.1321 6.77124 91.9687 6.77124C92.7268 6.77124 93.3543 6.98039 93.8772 7.42484C94.4 7.86928 94.6615 8.52288 94.7399 9.35948H89.1713V9.38562ZM79.4196 4.07844C77.9033 4.07844 76.6223 4.73203 75.7334 5.80393C74.8968 4.75818 73.6157 4.07844 72.0471 4.07844C68.8837 4.07844 66.8445 6.40523 66.8445 9.4902V16.8627H69.7987V9.41177C69.7987 8.05229 70.7138 7.11112 72.0471 7.11112C74.0079 7.11112 74.1909 8.73203 74.1909 9.41177V16.8627H77.1451V9.41177C77.1451 8.05229 78.0863 7.11112 79.3935 7.11112C81.3543 7.11112 81.5634 8.73203 81.5634 9.41177V16.8627H84.5177V9.4902C84.57 6.3268 82.6615 4.07844 79.4196 4.07844ZM140.831 2.50981V5.98693C140.465 5.41177 139.995 4.94118 139.42 4.62746C138.844 4.31373 138.191 4.13072 137.433 4.13072C135.812 4.13072 134.531 4.73203 133.563 5.93465C132.596 7.13726 132.099 8.88889 132.099 10.9804C132.099 12.8105 132.596 14.3007 133.563 15.451C134.557 16.6013 136.465 17.1242 138.191 17.1242C144.152 17.1242 144.099 12 144.099 12V0.235296C144.099 0.235296 140.831 -0.10457 140.831 2.50981ZM140.204 13.4902C139.733 14.1699 139.027 14.5098 138.139 14.5098C137.25 14.5098 136.544 14.1699 136.099 13.4902C135.655 12.8105 135.42 11.817 135.42 10.6667C135.42 9.62092 135.629 8.73203 136.073 8.02615C136.518 7.32027 137.197 6.95425 138.139 6.95425C138.766 6.95425 139.289 7.13726 139.76 7.52941C140.518 8.18301 140.91 9.33334 140.91 10.8497C140.936 11.9216 140.675 12.8105 140.204 13.4902ZM73.6942 21.8301C71.0275 21.6994 69.668 22.3529 68.8053 23.0065C67.6027 23.9216 66.8445 25.3072 66.8445 27.5033V38.7712H68.4131C68.8314 38.7712 69.2497 38.6144 69.5634 38.353C69.9033 38.0392 70.0863 37.6471 70.0863 37.1765V32.9412C70.4785 33.5948 70.9752 34.0915 71.6026 34.4052C72.204 34.6928 72.9098 34.8235 73.6942 34.8235C75.1843 34.8235 76.4131 34.2222 77.3543 33.0458C78.2955 31.817 78.7922 30.2222 78.7922 28.2614C78.7922 26.2745 78.3477 24.8889 77.2497 23.5556C76.4131 22.4837 75.0798 21.8824 73.6942 21.8301ZM74.8183 31.0588C74.3478 31.7124 73.6942 32.0523 72.8576 32.0523C71.9687 32.0523 71.2889 31.7386 70.8183 31.0588C70.3477 30.4575 70.1125 29.5686 70.1125 28.3922C70.1125 27.1111 70.3216 26.1699 70.7661 25.5686C71.2366 24.915 71.9164 24.5752 72.7791 24.5752C73.6419 24.5752 74.3478 24.915 74.8183 25.5686C75.2889 26.2222 75.5242 27.1634 75.5242 28.3922C75.5242 29.5163 75.2889 30.4052 74.8183 31.0588ZM101.537 22.9804C100.439 22.1438 99.3151 21.6994 97.3804 21.7516C95.4196 21.8039 93.9817 22.3529 93.0928 23.5556C92.204 24.7582 91.7595 26.3268 91.7595 28.2614C91.7595 29.9085 92.0994 31.268 92.753 32.2876C93.4327 33.3072 94.217 34.0131 95.1582 34.3791C96.0994 34.7451 97.0406 34.8235 97.9817 34.6144C98.9229 34.4052 99.6811 33.8562 100.256 32.9673V33.7516C100.204 34.7451 99.9425 35.5033 99.5242 36C99.1059 36.4967 98.6353 36.8105 98.1125 36.915C97.5896 37.0196 97.0928 36.9673 96.57 36.732C96.0471 36.4967 95.6811 36.1569 95.4196 35.7124H91.9948C92.8837 38.3791 94.4785 39.5556 97.3281 39.7386C101.929 40.0784 103.42 36.1569 103.42 34.0654V27.451C103.472 25.3072 102.74 23.8954 101.537 22.9804ZM100.178 29.4902C100.047 30.2222 99.8641 30.7712 99.5765 31.1111C98.9752 31.9216 98.0602 32.2092 96.8314 31.9739C95.5765 31.7386 94.9491 30.536 94.9491 28.3922C94.9491 27.3987 95.1321 26.5098 95.4981 25.7255C95.8641 24.9412 96.5961 24.549 97.6419 24.549C98.4262 24.549 99.0275 24.8366 99.4197 25.3856C99.838 25.9608 100.073 26.5882 100.204 27.3203C100.309 28.0261 100.309 28.7582 100.178 29.4902ZM88.9883 22.6667C87.9425 22.1438 86.7399 21.8562 85.3804 21.8562C83.2889 21.8562 81.8249 22.4052 80.9621 23.4771C80.4131 24.183 80.1255 25.0719 80.0471 26.1438H83.1582C83.2366 25.6732 83.3935 25.2811 83.6288 25.0196C83.9425 24.6536 84.4915 24.4444 85.2759 24.4444C85.9556 24.4444 86.4785 24.549 86.8445 24.732C87.2105 24.915 87.3674 25.2811 87.3674 25.7778C87.3674 26.1961 87.1321 26.5098 86.6615 26.6928C86.4 26.7974 85.9817 26.902 85.3804 26.9804L84.2824 27.1111C83.0275 27.268 82.0602 27.5294 81.4327 27.8954C80.2562 28.5752 79.6549 29.6732 79.6549 31.1895C79.6549 32.366 80.0209 33.2549 80.753 33.9085C81.485 34.536 82.4262 34.8235 83.5504 34.8758C90.583 35.1895 90.5046 31.1634 90.583 30.3268V25.6993C90.583 24.2092 90.0602 23.1896 88.9883 22.6667ZM87.3412 29.6994C87.3151 30.7712 87.0013 31.5294 86.4262 31.9216C85.8249 32.3399 85.1713 32.5229 84.4654 32.5229C84.021 32.5229 83.6549 32.3922 83.3412 32.1569C83.0275 31.9216 82.8706 31.5033 82.8706 30.9543C82.8706 30.3268 83.1321 29.8824 83.6288 29.5948C83.9425 29.4118 84.4131 29.2811 85.119 29.1503L85.851 29.0196C86.217 28.9412 86.5046 28.8889 86.7138 28.7843C86.9229 28.7059 87.1321 28.6013 87.3412 28.4706V29.6994ZM115.707 23.6863C114.661 22.3791 113.093 21.7255 110.975 21.7255C108.858 21.7255 107.289 22.3791 106.243 23.6863C105.197 24.9935 104.675 26.536 104.675 28.2876C104.675 30.0392 105.197 31.634 106.243 32.915C107.289 34.1961 108.858 34.8235 110.975 34.8235C113.093 34.8235 114.661 34.1699 115.707 32.915C116.753 31.634 117.276 30.0915 117.276 28.2876C117.276 26.4837 116.753 24.9935 115.707 23.6863ZM113.145 31.1373C112.648 31.817 111.916 32.1307 110.975 32.1307C110.034 32.1307 109.302 31.7909 108.805 31.1373C108.282 30.4575 108.047 29.5163 108.047 28.2876C108.047 27.0588 108.309 26.1176 108.805 25.4379C109.302 24.7843 110.034 24.4444 110.975 24.4444C111.916 24.4444 112.648 24.7843 113.145 25.4379C113.642 26.0915 113.903 27.0588 113.903 28.2876C113.903 29.5425 113.642 30.4837 113.145 31.1373Z" fill="white"/>
</g>
<defs>
<clipPath id="clip0_68_220">
<rect width="157.386" height="40" fill="white" transform="translate(0.674561)"/>
</clipPath>
</defs>
</svg>
