<svg width="212" height="60" viewBox="0 0 212 60" fill="none" xmlns="http://www.w3.org/2000/svg">
<g clip-path="url(#clip0_146_59)">
<path d="M20.4743 18.3871L19.4745 24.0634H13.4111L10.3795 41.2213H3.2196L6.25126 24.0634H0.252441L1.25225 18.3871H20.4743Z" fill="white"/>
<path d="M27.6984 40.2537C26.2363 39.4581 25.1075 38.3347 24.312 36.8834C23.5164 35.4321 23.1187 33.7711 23.1187 31.9005C23.1187 29.1698 23.6831 26.7563 24.8119 24.66C25.9407 22.5636 27.521 20.9295 29.5529 19.7577C31.5847 18.5859 33.923 18 36.5676 18C38.5457 18 40.2712 18.3924 41.744 19.1772C43.2169 19.962 44.351 21.0693 45.1466 22.4991C45.9421 23.9289 46.3399 25.5792 46.3399 27.4498C46.3399 30.1589 45.7755 32.5778 44.6467 34.7064C43.5179 36.835 41.9268 38.4906 39.8734 39.6732C37.8201 40.8557 35.4603 41.447 32.7942 41.447C30.8591 41.447 29.1605 41.0492 27.6984 40.2537ZM36.8095 33.884C37.6373 33.2927 38.2662 32.5079 38.6962 31.5296C39.1263 30.5513 39.3413 29.4924 39.3413 28.3528C39.3413 27.2132 39.0241 26.2511 38.3898 25.5953C37.7556 24.9395 36.8471 24.6116 35.6646 24.6116C34.5465 24.6116 33.5682 24.9019 32.7297 25.4824C31.8911 26.0629 31.2515 26.8423 30.8107 27.8207C30.3699 28.799 30.1495 29.8579 30.1495 30.9974C30.1495 32.137 30.4667 33.1046 31.101 33.7711C31.7352 34.4376 32.6652 34.7709 33.8907 34.7709C35.0088 34.7709 35.9817 34.4753 36.8095 33.884Z" fill="white"/>
<path d="M71.7218 18.3871L70.722 24.0634H64.6587L61.627 41.2213H54.4672L57.4988 24.0634H51.5L52.4998 18.3871H71.7218Z" fill="white"/>
<path d="M88.5893 37.7703H80.9779L79.2363 41.2213H71.7217L84.1063 18.3871H92.3628L96.6523 41.2213H89.1054L88.5893 37.7703ZM87.8153 32.3843L86.88 26.0307L83.6871 32.3843H87.8153Z" fill="white"/>
<path d="M109.618 35.803H116.52L115.552 41.2213H101.491L105.522 18.3871H112.682L109.618 35.803Z" fill="white"/>
<path d="M140.198 28.7076C139.478 29.7182 138.472 30.5406 137.182 31.1749C135.892 31.8092 134.323 32.1263 132.474 32.1263H128.41L126.797 41.2213H123.121L127.088 18.8063H134.828C137.086 18.8063 138.795 19.3062 139.956 20.306C141.117 21.3058 141.698 22.612 141.698 24.2246C141.698 24.5041 141.655 24.9234 141.569 25.4824C141.375 26.622 140.918 27.6971 140.198 28.7076ZM136.295 28.2561C137.102 27.5896 137.602 26.665 137.795 25.4824C137.86 25.1599 137.892 24.8482 137.892 24.5471C137.892 23.6441 137.596 22.9399 137.005 22.4347C136.414 21.9294 135.516 21.6767 134.312 21.6767H130.248L128.926 29.2559H132.99C134.387 29.2559 135.489 28.9226 136.295 28.2561Z" fill="white"/>
<path d="M159.855 36.6415H150.47L148.051 41.2212H144.213L156.211 18.774H160.468L164.532 41.2212H160.662L159.855 36.6415ZM159.372 33.7711L157.533 23.2248L151.986 33.7711H159.372Z" fill="white"/>
<path d="M175.659 40.7858C174.562 40.3451 173.692 39.7 173.047 38.8507C172.402 38.0014 172.079 36.9963 172.079 35.8352C172.079 35.6847 172.101 35.4159 172.144 35.0289H175.788C175.702 36.018 175.992 36.8404 176.659 37.4962C177.325 38.1519 178.282 38.4798 179.529 38.4798C180.862 38.4798 181.905 38.2057 182.658 37.6574C183.41 37.1091 183.786 36.319 183.786 35.2869C183.786 34.6634 183.598 34.1312 183.222 33.6905C182.846 33.2497 182.373 32.8788 181.803 32.5778C181.233 32.2768 180.443 31.922 179.432 31.5135C178.099 30.9544 177.035 30.4492 176.24 29.9976C175.444 29.5461 174.761 28.9226 174.192 28.127C173.622 27.3315 173.337 26.3317 173.337 25.1276C173.337 23.7946 173.681 22.6281 174.369 21.6283C175.057 20.6285 176.008 19.8598 177.223 19.3223C178.438 18.7848 179.809 18.516 181.335 18.516C182.862 18.516 184.179 18.7687 185.286 19.2739C186.393 19.7792 187.232 20.4888 187.802 21.4026C188.372 22.3163 188.624 23.386 188.56 24.6116H184.69C184.776 23.7301 184.507 22.9936 183.883 22.4024C183.26 21.8111 182.357 21.5154 181.174 21.5154C179.927 21.5154 178.933 21.8003 178.191 22.3701C177.449 22.9399 177.078 23.7085 177.078 24.6761C177.078 25.2781 177.266 25.7995 177.643 26.2403C178.019 26.6811 178.497 27.0574 179.078 27.3691C179.658 27.6809 180.443 28.0518 181.432 28.4818C182.765 29.0838 183.835 29.6214 184.641 30.0944C185.447 30.5674 186.141 31.2071 186.721 32.0134C187.302 32.8197 187.592 33.8141 187.592 34.9967C187.592 36.2437 187.248 37.3564 186.56 38.3347C185.872 39.313 184.905 40.0763 183.657 40.6246C182.41 41.1729 180.981 41.447 179.368 41.447C177.992 41.447 176.756 41.2266 175.659 40.7858Z" fill="white"/>
<path d="M198.203 40.7858C197.106 40.3451 196.236 39.7 195.591 38.8507C194.946 38.0014 194.623 36.9963 194.623 35.8352C194.623 35.6847 194.645 35.4159 194.688 35.0289H198.332C198.246 36.018 198.536 36.8404 199.203 37.4962C199.869 38.1519 200.826 38.4798 202.073 38.4798C203.406 38.4798 204.449 38.2057 205.202 37.6574C205.954 37.1091 206.33 36.319 206.33 35.2869C206.33 34.6634 206.142 34.1312 205.766 33.6905C205.39 33.2497 204.917 32.8788 204.347 32.5778C203.777 32.2768 202.987 31.922 201.976 31.5135C200.643 30.9544 199.579 30.4492 198.784 29.9976C197.988 29.5461 197.305 28.9226 196.736 28.127C196.166 27.3315 195.881 26.3317 195.881 25.1276C195.881 23.7946 196.225 22.6281 196.913 21.6283C197.601 20.6285 198.552 19.8598 199.767 19.3223C200.982 18.7848 202.353 18.516 203.879 18.516C205.406 18.516 206.723 18.7687 207.83 19.2739C208.937 19.7792 209.776 20.4888 210.346 21.4026C210.916 22.3163 211.168 23.386 211.104 24.6116H207.233C207.319 23.7301 207.051 22.9936 206.427 22.4024C205.804 21.8111 204.901 21.5154 203.718 21.5154C202.471 21.5154 201.477 21.8003 200.735 22.3701C199.993 22.9399 199.622 23.7085 199.622 24.6761C199.622 25.2781 199.81 25.7995 200.186 26.2403C200.563 26.6811 201.041 27.0574 201.622 27.3691C202.202 27.6809 202.987 28.0518 203.976 28.4818C205.309 29.0838 206.379 29.6214 207.185 30.0944C207.991 30.5674 208.685 31.2071 209.265 32.0134C209.846 32.8197 210.136 33.8141 210.136 34.9967C210.136 36.2437 209.792 37.3564 209.104 38.3347C208.416 39.313 207.448 40.0763 206.201 40.6246C204.954 41.1729 203.525 41.447 201.912 41.447C200.536 41.447 199.3 41.2266 198.203 40.7858Z" fill="white"/>
</g>
<defs>
<clipPath id="clip0_146_59">
<rect width="212" height="23.447" fill="white" transform="translate(0 18)"/>
</clipPath>
</defs>
</svg>
