<svg width="208" height="80" viewBox="0 0 208 80" fill="none" xmlns="http://www.w3.org/2000/svg">
<rect width="208" height="80" fill="white"/>
<path d="M3.32715 50.1814C33.4495 43.2668 48.0336 32.9403 68.2818 14.8974" stroke="#099BD9" stroke-width="0.458234"/>
<path d="M24.5205 71.8043C44.511 62.8687 58.3726 54.6778 75.2699 41.5322M3.09814 64.673C36.2342 53.5036 61.7234 35.2888 79.3941 20.0811" stroke="#099BD9" stroke-width="0.458234"/>
<path d="M6.5918 41.4749C30.5412 37.5336 42.9355 30.4487 61.1216 13.9236" stroke="#099BD9" stroke-width="0.400955"/>
<g clip-path="url(#clip0_250_627)">
<rect x="10" y="10" width="60" height="60" rx="30" fill="#099BD9"/>
<path d="M83.0277 17.1682L46.6017 17.1682C45.9321 17.1682 45.5973 17.1682 44.9505 17.2479C44.9254 17.2509 44.8396 17.2621 44.8146 17.2655C44.1689 17.3535 44.0041 17.397 43.6746 17.484C41.96 17.9366 38.9714 18.9658 36.0976 21.1239C31.7778 24.1933 29.8267 28.5415 29.8267 28.5415C29.5028 29.1057 17.8133 73.1391 13.5231 89.3217C12.6595 92.5795 14.5987 95.9086 17.8541 96.7809C21.1165 97.655 24.4697 95.719 25.3439 92.4566L33.5012 62.013C34.0012 60.1469 34.2513 59.2138 35.0642 57.8933C35.0971 57.8399 35.2038 57.6723 35.2383 57.6199C36.0911 56.3247 36.3611 56.0981 36.901 55.6447C36.9941 55.5666 37.0863 55.4938 37.1771 55.4279C37.3314 55.3157 37.5028 55.2059 37.6846 55.0998C38.2795 54.7524 38.5769 54.5787 39.8658 54.2116C39.9192 54.1964 40.0829 54.1521 40.1367 54.1383C41.4348 53.8053 42.2779 53.8053 43.964 53.8053L83.0278 53.8054C86.4001 53.8054 89.134 51.0715 89.134 47.6992C89.134 44.3268 86.4001 41.593 83.0278 41.593L38.9728 41.5929L40.491 35.9269C40.7067 35.1217 40.8146 34.7192 41.3036 33.747C41.3189 33.7166 41.3924 33.5742 41.4084 33.5441C41.9181 32.5827 41.9834 32.5039 42.114 32.3463C42.5038 31.8757 43.0019 31.3582 43.6179 30.8671C45.2161 29.5932 46.7838 29.4073 47.1576 29.3806L83.0277 29.3806C86.4001 29.3806 89.134 26.6467 89.1339 23.2743C89.1339 19.902 86.4001 17.1682 83.0277 17.1682Z" fill="white"/>
<path d="M3.32715 50.1814C33.4495 43.2668 48.0336 32.9403 68.2818 14.8974" stroke="white" stroke-width="0.458234"/>
<path d="M24.5205 71.8043C44.511 62.8687 58.3726 54.6778 75.2699 41.5322M3.09814 64.673C36.2342 53.5036 61.7234 35.2888 79.3941 20.0811" stroke="white" stroke-width="0.458234"/>
<path d="M6.5918 41.4749C30.5412 37.5336 42.9355 30.4487 61.1216 13.9236" stroke="white" stroke-width="0.400955"/>
<mask id="mask0_250_627" style="mask-type:alpha" maskUnits="userSpaceOnUse" x="13" y="17" width="77" height="80">
<path d="M83.0277 17.1682L46.6017 17.1682C45.9321 17.1682 45.5973 17.1682 44.9505 17.2479C44.9254 17.2509 44.8396 17.2621 44.8146 17.2655C44.1689 17.3535 44.0041 17.397 43.6746 17.484C41.96 17.9366 38.9714 18.9658 36.0976 21.1239C31.7778 24.1933 29.8267 28.5415 29.8267 28.5415C29.5028 29.1057 17.8133 73.1391 13.5231 89.3217C12.6595 92.5795 14.5987 95.9086 17.8541 96.7809C21.1165 97.655 24.4697 95.719 25.3439 92.4566L33.5012 62.013C34.0012 60.1469 34.2513 59.2138 35.0642 57.8933C35.0971 57.8399 35.2038 57.6723 35.2383 57.6199C36.0911 56.3247 36.3611 56.0981 36.901 55.6447C36.9941 55.5666 37.0863 55.4938 37.1771 55.4279C37.3314 55.3157 37.5028 55.2059 37.6846 55.0998C38.2795 54.7524 38.5769 54.5787 39.8658 54.2116C39.9192 54.1964 40.0829 54.1521 40.1367 54.1383C41.4348 53.8053 42.2779 53.8053 43.964 53.8053L83.0278 53.8054C86.4001 53.8054 89.134 51.0715 89.134 47.6992C89.134 44.3268 86.4001 41.593 83.0278 41.593L38.9728 41.5929L40.491 35.9269C40.7067 35.1217 40.8146 34.7192 41.3036 33.747C41.3189 33.7166 41.3924 33.5742 41.4084 33.5441C41.9181 32.5827 41.9834 32.5039 42.114 32.3463C42.5038 31.8757 43.0019 31.3582 43.6179 30.8671C45.2161 29.5932 46.7838 29.4073 47.1576 29.3806L83.0277 29.3806C86.4001 29.3806 89.134 26.6467 89.1339 23.2743C89.1339 19.902 86.4001 17.1682 83.0277 17.1682Z" fill="white"/>
</mask>
<g mask="url(#mask0_250_627)">
<path d="M3.32715 50.1814C33.4495 43.2668 48.0336 32.9403 68.2818 14.8974" stroke="#099BD9" stroke-width="0.458234"/>
<path d="M24.5205 71.8043C44.511 62.8687 58.3726 54.6778 75.2699 41.5322M3.09814 64.673C36.2342 53.5036 61.7234 35.2888 79.3941 20.0811" stroke="#099BD9" stroke-width="0.458234"/>
<path d="M6.5918 41.4749C30.5412 37.5336 42.9355 30.4487 61.1216 13.9236" stroke="#099BD9" stroke-width="0.400955"/>
<path d="M28.4438 31.3079C35.7756 28.8735 44.0238 24.2052 51.0119 16.9308M29.2458 27.7279C35.661 25.895 39.556 23.4606 46.9164 16.9308" stroke="#099BD9" stroke-width="0.343675"/>
</g>
</g>
<path d="M82.1967 49.5V30.8143H96.4245V34.9251H86.8948V38.7157H95.3568V42.4528H86.8948V49.5H82.1967ZM106.248 49.7669C104.255 49.7669 102.529 49.3665 101.07 48.5657C99.6284 47.7471 98.5162 46.6171 97.7331 45.1756C96.9501 43.7341 96.5586 42.0524 96.5586 40.1304C96.5586 38.2085 96.959 36.5357 97.7598 35.112C98.5784 33.6705 99.7174 32.5494 101.177 31.7486C102.636 30.9478 104.327 30.5473 106.248 30.5473C108.242 30.5473 109.959 30.9567 111.4 31.7753C112.86 32.5761 113.981 33.6972 114.764 35.1387C115.547 36.5624 115.938 38.2352 115.938 40.1571C115.938 42.0791 115.529 43.7608 114.71 45.2023C113.91 46.6438 112.78 47.7649 111.32 48.5657C109.861 49.3665 108.17 49.7669 106.248 49.7669ZM106.248 45.4158C107.245 45.4158 108.099 45.2379 108.811 44.882C109.541 44.5082 110.11 43.9299 110.52 43.1469C110.929 42.3638 111.133 41.3584 111.133 40.1304C111.133 38.9025 110.938 37.906 110.546 37.1407C110.155 36.3755 109.594 35.8149 108.864 35.459C108.135 35.0853 107.263 34.8984 106.248 34.8984C105.252 34.8984 104.389 35.0853 103.659 35.459C102.93 35.8149 102.36 36.3755 101.951 37.1407C101.559 37.906 101.364 38.9114 101.364 40.1571C101.364 41.3851 101.559 42.3905 101.951 43.1736C102.342 43.9388 102.903 44.5082 103.632 44.882C104.362 45.2379 105.234 45.4158 106.248 45.4158ZM117.314 49.5V30.8143H126.416C127.804 30.8143 128.997 31.0545 129.993 31.535C131.008 32.0155 131.791 32.7007 132.342 33.5904C132.912 34.4802 133.197 35.5391 133.197 36.767C133.197 37.8882 132.974 38.8402 132.529 39.6233C132.102 40.4063 131.506 41.038 130.741 41.5185C129.993 41.9812 129.13 42.3282 128.151 42.5596C127.173 42.7731 126.141 42.8799 125.055 42.8799H122.012V49.5H117.314ZM128.979 49.5L124.921 42.4261L129.353 41.5719L134.184 49.5H128.979ZM122.012 39.383H125.616C126.577 39.383 127.297 39.1873 127.778 38.7958C128.276 38.3864 128.525 37.7903 128.525 37.0073C128.525 36.242 128.276 35.6815 127.778 35.3256C127.297 34.9696 126.568 34.7917 125.589 34.7917H122.012V39.383ZM139.575 49.5V34.9251H133.569V30.8143H150.253V34.9251H144.274V49.5H139.575Z" fill="#606060"/>
<path d="M157.379 49.7669C156.4 49.7669 155.439 49.6958 154.496 49.5534C153.553 49.411 152.627 49.2153 151.72 48.9661L150.091 48.5123L150.839 44.9087L152.948 45.229C153.57 45.318 154.291 45.4069 155.11 45.4959C155.946 45.5671 156.765 45.6027 157.566 45.6027C158.491 45.6027 159.158 45.4781 159.568 45.229C159.995 44.962 160.208 44.5883 160.208 44.1078C160.208 43.8409 160.137 43.6096 159.995 43.4138C159.852 43.218 159.523 43.0134 159.007 42.7998C158.509 42.5685 157.726 42.2927 156.658 41.9723C155.181 41.5274 154.006 41.0736 153.134 40.6109C152.262 40.1304 151.64 39.5521 151.266 38.8758C150.91 38.1818 150.732 37.3009 150.732 36.2331C150.732 34.8984 151.061 33.8129 151.72 32.9765C152.396 32.1401 153.312 31.5261 154.469 31.1346C155.644 30.7431 156.961 30.5473 158.42 30.5473C159.238 30.5473 160.075 30.6096 160.929 30.7342C161.801 30.8588 162.664 31.0367 163.518 31.2681L164.8 31.5884L164.132 35.1387L162.104 34.8984C161.623 34.8451 161.071 34.7917 160.449 34.7383C159.843 34.6849 159.167 34.6582 158.42 34.6582C157.441 34.6582 156.711 34.7828 156.231 35.0319C155.75 35.2811 155.51 35.6637 155.51 36.1798C155.51 36.4289 155.59 36.6513 155.75 36.8471C155.928 37.0251 156.293 37.2119 156.845 37.4077C157.414 37.5856 158.269 37.8348 159.407 38.1551C160.867 38.511 162.015 38.9381 162.851 39.4364C163.687 39.9347 164.284 40.522 164.639 41.1982C164.995 41.8567 165.173 42.6575 165.173 43.6007C165.173 45.0065 164.826 46.1633 164.132 47.0709C163.438 47.9784 162.504 48.6547 161.329 49.0996C160.155 49.5445 158.838 49.7669 157.379 49.7669ZM163.932 49.5L170.926 30.8143H176.264L183.338 49.5H178.293L173.622 35.6993H173.542L168.79 49.5H163.932ZM169.217 46.3234V42.6397H177.946V46.3234H169.217ZM186.255 49.5V34.9251H180.249V30.8143H196.933V34.9251H190.953V49.5H186.255Z" fill="#099BD9"/>
<defs>
<clipPath id="clip0_250_627">
<rect x="10" y="10" width="60" height="60" rx="30" fill="white"/>
</clipPath>
</defs>
</svg>
