<svg width="184" height="60" viewBox="0 0 184 60" fill="none" xmlns="http://www.w3.org/2000/svg">
<circle cx="30.5" cy="30" r="30" fill="#0098DA"/>
<path d="M86.1657 19.6963V23.8571H78.6442V27.1644H84.192V31.1385H78.6442V38.5H73.4165V19.6963H86.1657ZM95.5155 38.6867C93.7552 38.6867 92.1371 38.2777 90.6612 37.4598C89.1854 36.6241 88.0118 35.4772 87.1405 34.0191C86.287 32.5433 85.8603 30.8807 85.8603 29.0314C85.8603 27.1822 86.287 25.5285 87.1405 24.0705C88.0118 22.5946 89.1854 21.4477 90.6612 20.6298C92.1371 19.8118 93.7552 19.4029 95.5155 19.4029C97.2937 19.4029 98.9118 19.8118 100.37 20.6298C101.846 21.4477 103.01 22.5946 103.864 24.0705C104.717 25.5285 105.144 27.1822 105.144 29.0314C105.144 30.8807 104.717 32.5433 103.864 34.0191C103.01 35.4772 101.846 36.6241 100.37 37.4598C98.894 38.2777 97.2759 38.6867 95.5155 38.6867ZM95.5155 33.8324C96.8491 33.8324 97.8982 33.3968 98.6628 32.5255C99.4452 31.6542 99.8364 30.4895 99.8364 29.0314C99.8364 27.5378 99.4452 26.3642 98.6628 25.5107C97.8982 24.6395 96.8491 24.2038 95.5155 24.2038C94.1641 24.2038 93.1062 24.6395 92.3416 25.5107C91.577 26.3642 91.1947 27.5378 91.1947 29.0314C91.1947 30.5073 91.577 31.6809 92.3416 32.5521C93.1062 33.4057 94.1641 33.8324 95.5155 33.8324ZM115.149 38.5L111.415 31.5653H110.855V38.5H105.627V19.6963H113.869C115.38 19.6963 116.66 19.963 117.71 20.4964C118.759 21.0121 119.55 21.7322 120.083 22.6568C120.617 23.5637 120.883 24.5861 120.883 25.7241C120.883 27.0044 120.528 28.1335 119.817 29.1115C119.123 30.0717 118.101 30.7562 116.749 31.1652L120.99 38.5H115.149ZM110.855 27.9912H113.442C114.153 27.9912 114.687 27.8223 115.042 27.4845C115.398 27.1466 115.576 26.6576 115.576 26.0175C115.576 25.4129 115.389 24.9417 115.016 24.6039C114.66 24.2483 114.135 24.0705 113.442 24.0705H110.855V27.9912ZM135.557 19.6963V23.8571H130.542V38.5H125.315V23.8571H120.354V19.6963H135.557ZM142.718 38.6867C140.531 38.6867 138.735 38.171 137.331 37.1397C135.926 36.0906 135.17 34.597 135.064 32.6588H140.638C140.691 33.3167 140.887 33.7968 141.225 34.0991C141.563 34.4014 141.998 34.5525 142.532 34.5525C143.012 34.5525 143.403 34.437 143.705 34.2058C144.025 33.9569 144.185 33.619 144.185 33.1923C144.185 32.6411 143.928 32.2143 143.412 31.912C142.896 31.6097 142.061 31.2719 140.905 30.8985C139.678 30.4895 138.682 30.0983 137.918 29.7249C137.171 29.3337 136.513 28.7736 135.944 28.0446C135.393 27.2978 135.117 26.3287 135.117 25.1373C135.117 23.9282 135.419 22.8969 136.024 22.0434C136.628 21.1721 137.464 20.5142 138.531 20.0697C139.598 19.6251 140.807 19.4029 142.158 19.4029C144.345 19.4029 146.088 19.9185 147.386 20.9498C148.702 21.9634 149.404 23.3948 149.493 25.244H143.812C143.794 24.675 143.616 24.2483 143.279 23.9638C142.959 23.6793 142.541 23.537 142.025 23.537C141.634 23.537 141.314 23.6526 141.065 23.8838C140.816 24.1149 140.691 24.4439 140.691 24.8706C140.691 25.2262 140.825 25.5374 141.091 25.8041C141.376 26.0531 141.723 26.2753 142.132 26.4709C142.541 26.6487 143.145 26.8799 143.945 27.1644C145.137 27.5734 146.115 27.9823 146.879 28.3913C147.662 28.7825 148.328 29.3426 148.88 30.0717C149.449 30.7829 149.733 31.6898 149.733 32.7922C149.733 33.9124 149.449 34.9171 148.88 35.8061C148.328 36.6952 147.519 37.3976 146.453 37.9132C145.403 38.4289 144.159 38.6867 142.718 38.6867ZM162.192 35.4327H155.524L154.511 38.5H149.016L155.871 19.6963H161.899L168.727 38.5H163.206L162.192 35.4327ZM160.885 31.4319L158.858 25.3507L156.858 31.4319H160.885ZM182.726 19.6963V23.8571H177.712V38.5H172.484V23.8571H167.523V19.6963H182.726Z" fill="black"/>
</svg>
