<svg width="218" height="24" viewBox="0 0 218 24" fill="none" xmlns="http://www.w3.org/2000/svg">
<g clip-path="url(#clip0_68_229)">
<path d="M21.6317 0.396118L20.6084 6.2063H14.402L11.2989 23.7689H3.97012L7.07329 6.2063H0.932983L1.95637 0.396118H21.6317Z" fill="white"/>
<path d="M29.0266 22.7785C27.53 21.9642 26.3746 20.8143 25.5603 19.3288C24.746 17.8432 24.3388 16.1431 24.3388 14.2283C24.3388 11.4333 24.9165 8.96286 26.072 6.81706C27.2274 4.67125 28.845 2.99862 30.9248 1.79917C33.0046 0.599725 35.398 0 38.105 0C40.1297 0 41.8959 0.401651 43.4035 1.20495C44.911 2.00825 46.072 3.14168 46.8863 4.60523C47.7006 6.06878 48.1077 7.75791 48.1077 9.67263C48.1077 12.4457 47.53 14.9216 46.3746 17.1004C45.2191 19.2792 43.5905 20.9739 41.4887 22.1843C39.3869 23.3948 36.9715 24 34.2425 24C32.2618 24 30.5231 23.5928 29.0266 22.7785ZM38.3526 16.2586C39.1999 15.6534 39.8436 14.8501 40.2838 13.8487C40.7239 12.8473 40.944 11.7634 40.944 10.597C40.944 9.43054 40.6194 8.44567 39.9702 7.77442C39.3209 7.10316 38.3911 6.76754 37.1806 6.76754C36.0362 6.76754 35.0348 7.06465 34.1765 7.65887C33.3182 8.2531 32.6634 9.05089 32.2123 10.0523C31.7611 11.0536 31.5355 12.1376 31.5355 13.304C31.5355 14.4704 31.8601 15.4608 32.5094 16.1431C33.1586 16.8253 34.1105 17.1664 35.3649 17.1664C36.5094 17.1664 37.5052 16.8638 38.3526 16.2586Z" fill="white"/>
<path d="M74.0884 0.396118L73.065 6.2063H66.8587L63.7555 23.7689H56.4268L59.53 6.2063H53.3896L54.413 0.396118H74.0884Z" fill="white"/>
<path d="M91.3539 20.2366H83.563L81.7803 23.7689H74.0884L86.7652 0.396118H95.2164L99.607 23.7689H91.8821L91.3539 20.2366ZM90.5616 14.7235L89.6043 8.22005L86.336 14.7235H90.5616Z" fill="white"/>
<path d="M112.878 18.2228H119.943L118.952 23.7689H104.559L108.685 0.396118H116.014L112.878 18.2228Z" fill="white"/>
<path d="M144.179 10.9601C143.442 11.9945 142.413 12.8363 141.093 13.4856C139.772 14.1348 138.165 14.4594 136.273 14.4594H132.113L130.463 23.7689H126.699L130.76 0.825317H138.683C140.994 0.825317 142.743 1.33701 143.932 2.36039C145.12 3.38378 145.714 4.72078 145.714 6.3714C145.714 6.6575 145.67 7.08667 145.582 7.65888C145.384 8.82532 144.916 9.92573 144.179 10.9601ZM140.185 10.4979C141.01 9.81569 141.522 8.86933 141.72 7.65888C141.786 7.32876 141.819 7.00964 141.819 6.70152C141.819 5.77717 141.516 5.0564 140.911 4.53921C140.306 4.02202 139.387 3.76342 138.154 3.76342H133.995L132.641 11.5213H136.801C138.231 11.5213 139.359 11.1802 140.185 10.4979Z" fill="white"/>
<path d="M164.3 19.0812H154.694L152.218 23.7689H148.289L160.57 0.792297H164.928L169.087 23.7689H165.126L164.3 19.0812ZM163.805 16.1431L161.923 5.34801L156.245 16.1431H163.805Z" fill="white"/>
<path d="M180.476 23.3232C179.354 22.8721 178.463 22.2118 177.802 21.3425C177.142 20.4732 176.812 19.4443 176.812 18.2558C176.812 18.1018 176.834 17.8267 176.878 17.4305H180.608C180.52 18.4429 180.817 19.2847 181.5 19.956C182.182 20.6272 183.161 20.9629 184.438 20.9629C185.802 20.9629 186.87 20.6823 187.64 20.121C188.41 19.5598 188.795 18.751 188.795 17.6946C188.795 17.0564 188.603 16.5117 188.218 16.0605C187.833 15.6094 187.348 15.2297 186.765 14.9216C186.182 14.6135 185.373 14.2503 184.339 13.8322C182.974 13.26 181.885 12.7428 181.071 12.2806C180.256 11.8184 179.557 11.1802 178.974 10.3659C178.391 9.55158 178.099 8.5282 178.099 7.29574C178.099 5.93122 178.452 4.73728 179.156 3.71389C179.86 2.69051 180.834 1.90371 182.077 1.35351C183.321 0.803301 184.724 0.528198 186.287 0.528198C187.849 0.528198 189.197 0.786795 190.331 1.30399C191.464 1.82118 192.322 2.54746 192.905 3.48281C193.489 4.41816 193.747 5.51307 193.681 6.76754H189.72C189.808 5.8652 189.533 5.11142 188.894 4.50619C188.256 3.90096 187.332 3.59835 186.121 3.59835C184.845 3.59835 183.827 3.88996 183.068 4.47318C182.309 5.0564 181.929 5.84319 181.929 6.83356C181.929 7.44979 182.121 7.98349 182.507 8.43466C182.892 8.88583 183.381 9.27098 183.976 9.5901C184.57 9.90922 185.373 10.2889 186.386 10.729C187.75 11.3453 188.845 11.8955 189.67 12.3796C190.496 12.8638 191.205 13.5186 191.8 14.3439C192.394 15.1692 192.691 16.1871 192.691 17.3975C192.691 18.674 192.339 19.8129 191.635 20.8143C190.93 21.8157 189.94 22.597 188.663 23.1582C187.387 23.7194 185.923 24 184.273 24C182.864 24 181.599 23.7744 180.476 23.3232Z" fill="white"/>
<path d="M203.552 23.3232C202.43 22.8721 201.538 22.2118 200.878 21.3425C200.218 20.4732 199.888 19.4443 199.888 18.2558C199.888 18.1018 199.91 17.8267 199.954 17.4305H203.684C203.596 18.4429 203.893 19.2847 204.575 19.956C205.258 20.6272 206.237 20.9629 207.513 20.9629C208.878 20.9629 209.945 20.6823 210.716 20.121C211.486 19.5598 211.871 18.751 211.871 17.6946C211.871 17.0564 211.679 16.5117 211.293 16.0605C210.908 15.6094 210.424 15.2297 209.841 14.9216C209.258 14.6135 208.449 14.2503 207.414 13.8322C206.05 13.26 204.961 12.7428 204.146 12.2806C203.332 11.8184 202.633 11.1802 202.05 10.3659C201.467 9.55158 201.175 8.5282 201.175 7.29574C201.175 5.93122 201.527 4.73728 202.232 3.71389C202.936 2.69051 203.91 1.90371 205.153 1.35351C206.397 0.803301 207.8 0.528198 209.362 0.528198C210.925 0.528198 212.273 0.786795 213.406 1.30399C214.54 1.82118 215.398 2.54746 215.981 3.48281C216.564 4.41816 216.823 5.51307 216.757 6.76754H212.795C212.884 5.8652 212.608 5.11142 211.97 4.50619C211.332 3.90096 210.408 3.59835 209.197 3.59835C207.921 3.59835 206.903 3.88996 206.143 4.47318C205.384 5.0564 205.005 5.84319 205.005 6.83356C205.005 7.44979 205.197 7.98349 205.582 8.43466C205.967 8.88583 206.457 9.27098 207.051 9.5901C207.646 9.90922 208.449 10.2889 209.461 10.729C210.826 11.3453 211.921 11.8955 212.746 12.3796C213.571 12.8638 214.281 13.5186 214.875 14.3439C215.469 15.1692 215.767 16.1871 215.767 17.3975C215.767 18.674 215.414 19.8129 214.71 20.8143C214.006 21.8157 213.016 22.597 211.739 23.1582C210.463 23.7194 208.999 24 207.348 24C205.94 24 204.674 23.7744 203.552 23.3232Z" fill="white"/>
</g>
<defs>
<clipPath id="clip0_68_229">
<rect width="217" height="24" fill="white" transform="translate(0.674561)"/>
</clipPath>
</defs>
</svg>
