<svg width="116" height="40" viewBox="0 0 116 40" fill="none" xmlns="http://www.w3.org/2000/svg">
<g clip-path="url(#clip0_68_159)">
<path d="M89.3211 36.6631C89.3211 38.4371 90.6002 39.7044 92.3058 39.7044C94.0113 39.7044 95.2906 38.4371 95.2906 36.6631V24.3295C95.2906 19.3875 98.1047 16.6842 102.454 16.6842C106.334 16.6842 108.551 19.0074 108.551 23.0623V36.6631C108.551 38.4371 109.83 39.7044 111.536 39.7044C113.242 39.7044 114.521 38.4371 114.521 36.6631V22.471C114.521 15.7128 110.513 11.1932 103.861 11.1932C100.066 11.1932 97.5077 12.5026 95.9301 14.699C95.6317 15.0793 95.2479 14.9947 95.2479 14.4879V3.04119C95.2479 1.26716 93.9687 0 92.2632 0C90.5576 0 89.2784 1.26716 89.2784 3.04119V36.6631H89.3211ZM64.4626 19.5987C64.4626 23.9071 67.4472 26.188 71.2421 27.2861L76.2309 28.7222C78.4054 29.3136 79.5141 30.0316 79.5141 31.51C79.5141 33.5375 77.7232 34.5935 74.5679 34.5935C72.3933 34.5935 70.7304 33.7486 69.4939 32.4815C68.4279 31.4255 66.7651 31.2144 65.4432 32.1859C64.1641 33.1574 63.9082 35.0581 65.1021 36.3675C67.3193 38.7751 70.9863 39.9577 74.5679 39.9577C79.8978 39.9577 85.3983 37.4235 85.3983 31.2144C85.3983 26.8215 82.5841 24.6674 78.2349 23.4002L73.2462 21.9641C71.0289 21.2882 70.3467 20.528 70.3467 19.2609C70.3467 17.5713 72.0096 16.5153 74.6106 16.5153C76.7852 16.5153 78.4054 17.3601 79.8552 18.3738C81.3049 19.4298 83.1384 19.2609 84.0338 18.0359C84.9292 16.8955 84.9719 15.2481 83.6074 14.0233C81.4754 12.207 78.6187 11.1088 74.6106 11.1088C69.1954 11.1932 64.4626 14.1921 64.4626 19.5987ZM37.1736 25.5966C37.1736 20.359 40.7126 16.6842 45.9146 16.6842C51.0312 16.6842 54.6556 20.4435 54.6556 25.5966C54.6556 30.8343 51.1166 34.509 45.9146 34.509C40.7978 34.509 37.1736 30.792 37.1736 25.5966ZM31.0762 25.5966C31.0762 33.7486 37.0883 40 44.9338 40C49.1978 40 52.0546 38.3949 53.9307 35.8606C54.2718 35.4382 54.6129 35.565 54.6129 36.0718V36.6209C54.6129 38.3949 55.8921 39.6621 57.5977 39.6621C59.3032 39.6621 60.5823 38.3949 60.5823 36.6209V14.5301C60.5823 12.7561 59.3032 11.4889 57.5977 11.4889C55.8921 11.4889 54.6129 12.7561 54.6129 14.5301V14.9525C54.6129 15.4594 54.2718 15.6283 53.9307 15.1636C52.0546 12.6716 49.1978 11.151 44.9764 11.151C37.1736 11.1932 31.0762 17.5713 31.0762 25.5966ZM21.1839 36.6631C21.1839 38.4371 22.4631 39.7044 24.1687 39.7044C25.8742 39.7044 27.1534 38.4371 27.1534 36.6631V3.04119C27.1534 1.26716 25.8742 0 24.1687 0C22.4631 0 21.1839 1.26716 21.1839 3.04119V36.6631ZM7.88055 39.7044C9.58611 39.7044 10.8653 38.4371 10.8653 36.6631V17.9936C10.8653 17.6558 11.0785 17.4445 11.4196 17.4445H14.7454C16.4083 17.4445 17.6876 16.2196 17.6876 14.6567C17.6876 13.094 16.4509 11.8268 14.7881 11.8268H11.4622C11.1211 11.8268 10.9079 11.6156 10.9079 11.2777V9.88384C10.9079 7.34952 12.315 5.87117 14.7881 5.65998C16.7921 5.49102 17.9007 4.43506 17.9007 2.74551C17.9007 1.22492 16.9201 0 14.6602 0C9.03181 0 4.89582 4.30834 4.89582 10.095V11.32C4.89582 11.6579 4.68262 11.8691 4.34151 11.8691H3.61665C1.95374 11.8268 0.674561 13.0518 0.674561 14.6567C0.674561 16.2619 1.95374 17.4445 3.61665 17.4445H4.34151C4.68262 17.4445 4.89582 17.6558 4.89582 17.9936V36.6631C4.89582 38.4371 6.175 39.7044 7.88055 39.7044Z" fill="white"/>
</g>
<defs>
<clipPath id="clip0_68_159">
<rect width="115" height="40" fill="white" transform="translate(0.674561)"/>
</clipPath>
</defs>
</svg>
