<svg width="105" height="100" viewBox="0 0 105 100" fill="none" xmlns="http://www.w3.org/2000/svg">
<path d="M4.33203 65.3404C43.5539 56.337 62.5435 42.8911 88.9084 19.3976" stroke="#099BD9" stroke-width="0.596659"/>
<path d="M31.9274 93.4952C57.9567 81.8604 76.0056 71.1951 98.0074 54.0784M4.03369 84.2097C47.1796 69.6661 80.3687 45.9489 103.377 26.1473" stroke="#099BD9" stroke-width="0.596659"/>
<path d="M8.5835 54.0039C39.7676 48.8719 55.906 39.6468 79.5859 18.1298" stroke="#099BD9" stroke-width="0.522076"/>
<g clip-path="url(#clip0_250_1064)">
<rect x="13.021" y="10.5208" width="78.125" height="78.125" rx="39.0625" fill="#099BD9"/>
<path d="M108.109 19.8543L60.6792 19.8543C59.8073 19.8543 59.3713 19.8543 58.5292 19.958C58.4965 19.9621 58.3848 19.9765 58.3522 19.981C57.5115 20.0956 57.2969 20.1522 56.8678 20.2655C54.6352 20.8548 50.7439 22.195 47.0019 25.005C41.3772 29.0016 38.8367 34.6632 38.8367 34.6632C38.415 35.3979 23.1942 92.7331 17.6081 113.804C16.4836 118.046 19.0086 122.381 23.2475 123.517C27.4953 124.655 31.8615 122.134 32.9997 117.886L43.6213 78.246C44.2723 75.8162 44.5979 74.6012 45.6563 72.8818C45.6992 72.8122 45.8381 72.594 45.8831 72.5258C46.9935 70.8394 47.3451 70.5442 48.0481 69.9539C48.1692 69.8522 48.2893 69.7575 48.4075 69.6716C48.6085 69.5255 48.8317 69.3826 49.0684 69.2444C49.843 68.7921 50.2302 68.5659 51.9084 68.0879C51.978 68.0681 52.1911 68.0104 52.2612 67.9924C53.9514 67.5589 55.0492 67.5589 57.2447 67.5589L108.109 67.5589C112.5 67.5589 116.06 63.9993 116.06 59.6082C116.06 55.2171 112.5 51.6574 108.109 51.6574L50.7457 51.6574L52.7225 44.2797C53.0034 43.2313 53.1439 42.7071 53.7806 41.4413C53.8005 41.4017 53.8963 41.2163 53.917 41.1772C54.5808 39.9253 54.6658 39.8227 54.8358 39.6174C55.3433 39.0047 55.9919 38.3308 56.794 37.6915C58.8751 36.0326 60.9163 35.7906 61.403 35.7559L108.109 35.7558C112.5 35.7558 116.06 32.1961 116.06 27.805C116.06 23.4139 112.5 19.8542 108.109 19.8543Z" fill="white"/>
<path d="M4.33203 62.8402C43.5539 53.8369 62.5435 40.3909 88.9084 16.8975" stroke="white" stroke-width="0.596659"/>
<path d="M31.9274 90.9951C57.9567 79.3602 76.0056 68.695 98.0074 51.5783M4.03369 81.7096C47.1796 67.166 80.3687 43.4488 103.377 23.6472" stroke="white" stroke-width="0.596659"/>
<path d="M8.5835 51.5037C39.7676 46.3717 55.906 37.1466 79.5859 15.6296" stroke="white" stroke-width="0.522076"/>
<mask id="mask0_250_1064" style="mask-type:alpha" maskUnits="userSpaceOnUse" x="17" y="19" width="100" height="105">
<path d="M108.108 19.8544L60.6788 19.8545C59.8068 19.8545 59.3708 19.8545 58.5287 19.9582C58.496 19.9622 58.3843 19.9767 58.3517 19.9812C57.511 20.0958 57.2964 20.1524 56.8673 20.2657C54.6348 20.855 50.7435 22.1952 47.0015 25.0052C41.3767 29.0018 38.8362 34.6634 38.8362 34.6634C38.4145 35.3981 23.1937 92.7333 17.6076 113.804C16.4831 118.046 19.0081 122.381 23.247 123.517C27.4948 124.655 31.861 122.134 32.9992 117.886L43.6208 78.2462C44.2718 75.8163 44.5974 74.6014 45.6559 72.882C45.6987 72.8124 45.8376 72.5942 45.8826 72.5259C46.993 70.8396 47.3446 70.5444 48.0476 69.9541C48.1687 69.8524 48.2888 69.7577 48.407 69.6718C48.608 69.5257 48.8312 69.3828 49.0679 69.2446C49.8425 68.7922 50.2297 68.5661 51.9079 68.0881C51.9775 68.0683 52.1906 68.0106 52.2607 67.9926C53.9509 67.5591 55.0487 67.5591 57.2442 67.5591L108.108 67.5591C112.5 67.5591 116.059 63.9994 116.059 59.6083C116.059 55.2173 112.5 51.6576 108.108 51.6576L50.7452 51.6576L52.722 44.2799C53.0029 43.2315 53.1434 42.7073 53.7801 41.4414C53.8 41.4019 53.8958 41.2164 53.9165 41.1773C54.5803 39.9255 54.6653 39.8228 54.8353 39.6176C55.3428 39.0049 55.9914 38.331 56.7935 37.6917C58.8746 36.0328 60.9158 35.7908 61.4025 35.7561L108.108 35.756C112.5 35.756 116.059 32.1963 116.059 27.8052C116.059 23.4141 112.5 19.8544 108.108 19.8544Z" fill="white"/>
</mask>
<g mask="url(#mask0_250_1064)">
<path d="M4.33203 62.8404C43.5539 53.8371 62.5435 40.3911 88.9084 16.8977" stroke="#0598D8" stroke-width="0.596659"/>
<path d="M31.9269 90.9953C57.9562 79.3605 76.0051 68.6952 98.0069 51.5786M4.0332 81.7098C47.1791 67.1663 80.3682 43.4491 103.377 23.6475" stroke="#0598D8" stroke-width="0.596659"/>
<path d="M8.58301 51.5039C39.7671 46.3719 55.9055 37.1468 79.5854 15.6298" stroke="#0598D8" stroke-width="0.522076"/>
<path d="M37.0361 38.2656C46.5827 35.0958 57.3225 29.0174 66.4216 19.5454M38.0803 33.6042C46.4335 31.2175 51.5051 28.0478 61.0889 19.5454" stroke="#0598D8" stroke-width="0.447494"/>
</g>
</g>
<defs>
<clipPath id="clip0_250_1064">
<rect x="13.021" y="10.5208" width="78.125" height="78.125" rx="39.0625" fill="white"/>
</clipPath>
</defs>
</svg>
