<svg width="212" height="60" viewBox="0 0 212 60" fill="none" xmlns="http://www.w3.org/2000/svg">
<path d="M46.5817 23.3856C46.5556 23.4118 46.2942 23.6993 46.4772 23.9346C46.9216 24.4836 48.2549 24.7974 49.6144 24.5098C50.4249 24.3268 51.4445 23.5163 52.4641 22.7059C53.5621 21.8431 54.634 20.9804 55.7059 20.6405C56.8563 20.2745 57.5883 20.4314 58.085 20.5882C58.6079 20.7451 59.2353 21.1111 60.2549 21.8431C62.1373 23.2549 69.6929 29.8693 71.0262 30.9934C72.0719 30.5229 77.0915 28.4836 83.4445 27.098C82.8955 23.6993 80.8563 20.4836 77.719 17.9477C73.353 19.7778 67.6798 20.8758 62.451 18.3399C62.4249 18.3399 59.6014 17.0065 56.8301 17.0588C52.6994 17.1634 50.8955 18.9412 49.0131 20.8497L46.5817 23.3856Z" fill="white"/>
<path d="M70.6861 31.6994C70.6076 31.6209 61.7972 23.9085 59.7841 22.4183C58.6338 21.5556 57.9802 21.3203 57.3004 21.2419C56.9606 21.1896 56.4638 21.268 56.124 21.3464C55.1828 21.6079 53.9802 22.4183 52.9083 23.2549C51.7841 24.1438 50.7383 24.9804 49.771 25.1896C48.5161 25.4772 46.9998 25.1373 46.2939 24.6667C46.0063 24.4837 45.8233 24.2484 45.7187 24.0392C45.4573 23.4379 45.9279 22.9673 46.0063 22.8889L48.4377 20.2484C48.7253 19.9608 49.0129 19.6732 49.3004 19.4118C48.5161 19.5164 47.7841 19.7255 47.0782 19.9085C46.1893 20.1438 45.3527 20.3791 44.49 20.3791C44.124 20.3791 42.2155 20.0654 41.8495 19.9608C39.6534 19.3595 37.1436 18.7843 34.2678 17.4249C30.8168 19.987 28.5684 23.1504 27.8887 26.7059C28.3854 26.8366 29.6926 27.1242 30.0325 27.2026C37.8495 28.9543 40.2808 30.7321 40.7253 31.0981C41.1959 30.5752 41.9017 30.2353 42.6599 30.2353C43.5227 30.2353 44.307 30.6798 44.7776 31.3334C45.222 30.9674 45.8495 30.6798 46.6338 30.6798C46.9998 30.6798 47.3658 30.7582 47.758 30.8628C48.6468 31.1765 49.0913 31.7517 49.3266 32.2745C49.6142 32.1438 49.9802 32.0392 50.4246 32.0392C50.8429 32.0392 51.2874 32.1438 51.7318 32.3268C53.1697 32.9543 53.405 34.366 53.2743 35.4379C53.3789 35.4379 53.4834 35.4118 53.588 35.4118C55.2874 35.4118 56.6991 36.7974 56.6991 38.5229C56.6991 39.0458 56.5684 39.5425 56.3331 39.987C56.8037 40.2484 57.9802 40.8497 59.0259 40.719C59.8625 40.6144 60.1763 40.3268 60.2808 40.17C60.3593 40.0654 60.4377 39.9347 60.3593 39.8301L58.1632 37.3726C58.1632 37.3726 57.7972 37.0327 57.9279 36.902C58.0586 36.7713 58.2678 36.9543 58.4246 37.085C59.5488 38.0262 60.9083 39.4379 60.9083 39.4379C60.9344 39.4641 61.0129 39.6209 61.5357 39.7255C61.9802 39.804 62.7383 39.7517 63.2874 39.3072C63.4181 39.2026 63.5488 39.0458 63.6795 38.9151L63.6534 38.9412C64.2285 38.2092 63.6011 37.4772 63.6011 37.4772L61.0129 34.5752C61.0129 34.5752 60.6468 34.2353 60.7776 34.1046C60.8821 33.9739 61.1174 34.1569 61.3004 34.2876C62.1109 34.9673 63.2612 36.1177 64.3854 37.2157C64.5946 37.3726 65.5619 37.9739 66.8691 37.1373C67.6534 36.6144 67.8102 35.987 67.7841 35.5164C67.7318 34.8889 67.2351 34.4445 67.2351 34.4445L63.7057 30.9151C63.7057 30.9151 63.3397 30.6013 63.4704 30.4445C63.5749 30.3138 63.8102 30.4968 63.9671 30.6275C65.0913 31.5687 68.124 34.3399 68.124 34.3399C68.1763 34.366 69.222 35.1242 70.503 34.2876C70.9736 34 71.2612 33.5556 71.2874 33.0327C71.3135 32.2223 70.6861 31.6994 70.6861 31.6994Z" fill="white"/>
<path d="M53.6142 36.1699C53.0651 36.1699 52.4638 36.4836 52.3854 36.4313C52.3331 36.4052 52.4116 36.196 52.4638 36.0653C52.5161 35.9346 53.222 33.7908 51.4965 33.0326C50.1632 32.4575 49.3266 33.1111 49.0651 33.3987C48.9867 33.4771 48.9606 33.4771 48.9606 33.3725C48.9344 32.9804 48.7514 31.9346 47.6011 31.5686C45.954 31.0719 44.8821 32.2222 44.6207 32.6405C44.49 31.6993 43.7057 30.9673 42.7383 30.9673C41.6665 30.9673 40.8299 31.83 40.8037 32.8758C40.8037 33.9477 41.6665 34.7843 42.7122 34.7843C43.2351 34.7843 43.7057 34.5751 44.0455 34.2614C44.0455 34.2614 44.0717 34.2875 44.0455 34.3137C43.9671 34.7843 43.8102 36.5098 45.6142 37.2156C46.3462 37.5032 46.9475 37.2941 47.4704 36.9281C47.6272 36.8235 47.6534 36.8758 47.6272 37.0065C47.5488 37.4509 47.6534 38.3921 48.9867 38.9411C50.0063 39.3594 50.6076 38.9411 50.9998 38.5751C51.1828 38.4183 51.2089 38.4444 51.2351 38.6797C51.2874 39.9607 52.3593 40.9804 53.6403 40.9804C54.9736 40.9804 56.0455 39.9085 56.0455 38.5751C56.0194 37.2679 54.9475 36.196 53.6142 36.1699Z" fill="white"/>
<path d="M55.7324 10.2354C71.523 10.2355 84.3328 18.6275 84.333 28.9541V30.0527C84.3327 40.9806 73.1438 49.8426 55.7324 49.8428C38.3209 49.8428 27.1311 40.9807 27.1309 30.0527V28.9541C27.131 18.6274 39.9417 10.2354 55.7324 10.2354ZM55.7324 11.333C47.6018 11.333 40.3072 13.5815 35.2354 17.1631L34.2939 17.8955C31.2092 20.3529 29.1441 23.3332 28.5166 26.6533L28.3076 27.752C28.2554 28.1439 28.2285 28.5358 28.2285 28.9277C28.2285 38.6532 40.5429 46.5225 55.7324 46.5225C70.9218 46.5223 83.2354 38.6534 83.2354 28.9541C83.2354 28.6405 83.2351 28.353 83.209 28.0654L83.0264 26.8623C82.4511 23.673 80.5164 20.7191 77.667 18.2617L76.6729 17.5293C71.6272 13.7386 64.1243 11.3331 55.7324 11.333Z" fill="white"/>
<path d="M182.399 15.9869C181.353 14.6797 179.784 14.0261 177.667 14.0261C175.549 14.0261 173.98 14.6797 172.935 15.9869C171.889 17.2941 171.366 18.8366 171.366 20.5882C171.366 22.366 171.889 23.9346 172.935 25.2157C173.98 26.4967 175.549 27.1503 177.667 27.1503C179.784 27.1503 181.353 26.4967 182.399 25.2157C183.444 23.9346 183.967 22.3922 183.967 20.5882C183.967 18.7843 183.444 17.2941 182.399 15.9869ZM179.837 23.4641C179.34 24.1438 178.608 24.4575 177.667 24.4575C176.725 24.4575 175.993 24.1177 175.497 23.4641C175 22.7843 174.739 21.8431 174.739 20.6144C174.739 19.3856 175 18.4445 175.497 17.7647C175.993 17.1111 176.725 16.7712 177.667 16.7712C178.608 16.7712 179.34 17.1111 179.837 17.7647C180.333 18.4183 180.595 19.3856 180.595 20.6144C180.595 21.8431 180.333 22.7843 179.837 23.4641ZM155.863 14.8889C154.817 14.366 153.614 14.0784 152.255 14.0784C150.163 14.0784 148.699 14.6275 147.837 15.6993C147.288 16.4052 147 17.2941 146.922 18.366H150.033C150.111 17.8954 150.268 17.5033 150.503 17.2418C150.817 16.8758 151.366 16.6667 152.15 16.6667C152.83 16.6667 153.353 16.7712 153.719 16.9543C154.085 17.1373 154.242 17.5033 154.242 18C154.242 18.4183 154.007 18.732 153.536 18.915C153.274 19.0196 152.856 19.1242 152.255 19.2026L151.157 19.3333C149.902 19.4902 148.961 19.7516 148.307 20.1177C147.131 20.7974 146.529 21.8954 146.529 23.4118C146.529 24.5882 146.895 25.4771 147.627 26.1307C148.359 26.7582 149.301 27.0458 150.425 27.098C157.484 27.4118 157.405 23.3856 157.458 22.549V17.9216C157.431 16.4575 156.908 15.4379 155.863 14.8889ZM154.216 21.9216C154.19 22.9935 153.876 23.7516 153.301 24.1438C152.699 24.5621 152.046 24.7451 151.34 24.7451C150.895 24.7451 150.503 24.6144 150.216 24.3791C149.902 24.1438 149.745 23.7255 149.745 23.1765C149.745 22.549 150.007 22.1046 150.503 21.817C150.817 21.634 151.288 21.5033 151.993 21.3726L152.725 21.2418C153.091 21.1634 153.379 21.085 153.588 21.0065C153.797 20.9281 154.007 20.8235 154.216 20.6928V21.9216ZM139.784 16.8497C140.595 16.8497 141.17 17.1111 141.562 17.6078C141.824 17.9739 141.98 18.3922 142.059 18.8627H145.536C145.353 17.1111 144.725 15.8824 143.706 15.2026C142.66 14.5229 141.327 14.1569 139.706 14.1569C137.797 14.1569 136.281 14.732 135.209 15.9085C134.111 17.085 133.588 18.732 133.588 20.8497C133.588 22.7059 134.085 24.2484 135.078 25.4248C136.072 26.6013 137.588 27.1765 139.68 27.1765C141.771 27.1765 143.34 26.4706 144.412 25.0588C145.091 24.1961 145.458 23.2549 145.536 22.2876H142.033C141.954 22.9412 141.771 23.4641 141.431 23.8824C141.091 24.2745 140.542 24.4837 139.732 24.4837C138.608 24.4837 137.85 23.9608 137.431 22.9412C137.196 22.3922 137.091 21.6601 137.091 20.7712C137.091 19.8824 137.196 19.0719 137.431 18.4967C137.85 17.3987 138.634 16.8497 139.784 16.8497ZM132.621 14.1307C125.484 14.1307 125.902 20.4575 125.902 20.4575V26.8889H129.144V20.8758C129.144 19.8824 129.274 19.1503 129.51 18.6797C129.954 17.8431 130.817 17.4248 132.124 17.4248C132.229 17.4248 132.359 17.4248 132.516 17.451C132.673 17.451 132.856 17.4771 133.065 17.5033V14.2092C132.935 14.2092 132.83 14.183 132.778 14.183C132.725 14.1307 132.673 14.1307 132.621 14.1307ZM123.314 16.536C122.765 15.6994 122.033 15.098 121.196 14.7059C120.333 14.3137 119.366 14.1307 118.294 14.1307C116.49 14.1307 115.026 14.7059 113.902 15.8301C112.778 16.9804 112.203 18.6013 112.203 20.7451C112.203 23.0196 112.83 24.6667 114.085 25.6863C115.34 26.7059 116.778 27.2026 118.425 27.2026C120.412 27.2026 121.954 26.6013 123.052 25.3987C123.654 24.7712 124.02 24.1438 124.176 23.5425H120.725C120.595 23.7255 120.438 23.9085 120.281 24.0392C119.81 24.4052 119.209 24.536 118.477 24.536C117.797 24.536 117.248 24.4314 116.752 24.1177C115.941 23.6209 115.497 22.7843 115.444 21.5556H124.412C124.412 20.4837 124.386 19.6732 124.307 19.098C124.15 18.1046 123.81 17.268 123.314 16.536ZM115.497 19.3856C115.601 18.5752 115.889 17.9477 116.359 17.4771C116.804 17.0065 117.458 16.7712 118.294 16.7712C119.052 16.7712 119.68 16.9804 120.203 17.4248C120.725 17.8693 120.987 18.5229 121.065 19.3595H115.497V19.3856ZM105.745 14.0784C104.229 14.0784 102.948 14.732 102.059 15.8039C101.222 14.7582 99.9412 14.0784 98.3725 14.0784C95.2091 14.0784 93.1699 16.4052 93.1699 19.4902V26.8627H96.1242V19.4118C96.1242 18.0523 97.0392 17.1111 98.3725 17.1111C100.333 17.1111 100.516 18.732 100.516 19.4118V26.8627H103.471V19.4118C103.471 18.0523 104.412 17.1111 105.719 17.1111C107.68 17.1111 107.889 18.732 107.889 19.4118V26.8627H110.843V19.4902C110.895 16.3268 108.987 14.0784 105.745 14.0784ZM167.157 12.5098V15.9869C166.791 15.4118 166.32 14.9412 165.745 14.6275C165.17 14.3137 164.516 14.1307 163.758 14.1307C162.137 14.1307 160.856 14.732 159.889 15.9346C158.922 17.1373 158.425 18.8889 158.425 20.9804C158.425 22.8105 158.922 24.3007 159.889 25.451C160.882 26.6013 162.791 27.1242 164.516 27.1242C170.477 27.1242 170.425 22 170.425 22V10.2353C170.425 10.2353 167.157 9.89543 167.157 12.5098ZM166.529 23.4902C166.059 24.1699 165.353 24.5098 164.464 24.5098C163.575 24.5098 162.869 24.1699 162.425 23.4902C161.98 22.8105 161.745 21.817 161.745 20.6667C161.745 19.6209 161.954 18.732 162.399 18.0262C162.843 17.3203 163.523 16.9543 164.464 16.9543C165.091 16.9543 165.614 17.1373 166.085 17.5294C166.843 18.183 167.235 19.3333 167.235 20.8497C167.261 21.9216 167 22.8105 166.529 23.4902ZM100.02 31.8301C97.3529 31.6994 95.9935 32.3529 95.1307 33.0065C93.9281 33.9216 93.1699 35.3072 93.1699 37.5033V48.7712H94.7385C95.1569 48.7712 95.5751 48.6144 95.8889 48.353C96.2287 48.0392 96.4118 47.6471 96.4118 47.1765V42.9412C96.8039 43.5948 97.3006 44.0915 97.9281 44.4052C98.5294 44.6928 99.2353 44.8235 100.02 44.8235C101.51 44.8235 102.739 44.2222 103.68 43.0458C104.621 41.817 105.118 40.2222 105.118 38.2614C105.118 36.2745 104.673 34.8889 103.575 33.5556C102.739 32.4837 101.405 31.8824 100.02 31.8301ZM101.144 41.0588C100.673 41.7124 100.02 42.0523 99.183 42.0523C98.2941 42.0523 97.6144 41.7386 97.1438 41.0588C96.6732 40.4575 96.4379 39.5686 96.4379 38.3922C96.4379 37.1111 96.647 36.1699 97.0915 35.5686C97.5621 34.915 98.2418 34.5752 99.1046 34.5752C99.9673 34.5752 100.673 34.915 101.144 35.5686C101.614 36.2222 101.85 37.1634 101.85 38.3922C101.85 39.5163 101.614 40.4052 101.144 41.0588ZM127.863 32.9804C126.765 32.1438 125.641 31.6994 123.706 31.7516C121.745 31.8039 120.307 32.3529 119.418 33.5556C118.529 34.7582 118.085 36.3268 118.085 38.2614C118.085 39.9085 118.425 41.268 119.078 42.2876C119.758 43.3072 120.542 44.0131 121.484 44.3791C122.425 44.7451 123.366 44.8235 124.307 44.6144C125.248 44.4052 126.007 43.8562 126.582 42.9673V43.7516C126.529 44.7451 126.268 45.5033 125.85 46C125.431 46.4967 124.961 46.8105 124.438 46.915C123.915 47.0196 123.418 46.9673 122.895 46.732C122.373 46.4967 122.007 46.1569 121.745 45.7124H118.32C119.209 48.3791 120.804 49.5556 123.654 49.7386C128.255 50.0784 129.745 46.1569 129.745 44.0654V37.451C129.797 35.3072 129.065 33.8954 127.863 32.9804ZM126.503 39.4902C126.373 40.2222 126.19 40.7712 125.902 41.1111C125.301 41.9216 124.386 42.2092 123.157 41.9739C121.902 41.7386 121.274 40.536 121.274 38.3922C121.274 37.3987 121.458 36.5098 121.824 35.7255C122.19 34.9412 122.922 34.549 123.967 34.549C124.752 34.549 125.353 34.8366 125.745 35.3856C126.163 35.9608 126.399 36.5882 126.529 37.3203C126.634 38.0261 126.634 38.7582 126.503 39.4902ZM115.314 32.6667C114.268 32.1438 113.065 31.8562 111.706 31.8562C109.614 31.8562 108.15 32.4052 107.288 33.4771C106.739 34.183 106.451 35.0719 106.373 36.1438H109.484C109.562 35.6732 109.719 35.2811 109.954 35.0196C110.268 34.6536 110.817 34.4444 111.601 34.4444C112.281 34.4444 112.804 34.549 113.17 34.732C113.536 34.915 113.693 35.2811 113.693 35.7778C113.693 36.1961 113.458 36.5098 112.987 36.6928C112.725 36.7974 112.307 36.902 111.706 36.9804L110.608 37.1111C109.353 37.268 108.386 37.5294 107.758 37.8954C106.582 38.5752 105.98 39.6732 105.98 41.1895C105.98 42.366 106.346 43.2549 107.078 43.9085C107.81 44.536 108.752 44.8235 109.876 44.8758C116.908 45.1895 116.83 41.1634 116.908 40.3268V35.6993C116.908 34.2092 116.386 33.1896 115.314 32.6667ZM113.667 39.6994C113.641 40.7712 113.327 41.5294 112.752 41.9216C112.15 42.3399 111.497 42.5229 110.791 42.5229C110.346 42.5229 109.98 42.3922 109.667 42.1569C109.353 41.9216 109.196 41.5033 109.196 40.9543C109.196 40.3268 109.457 39.8824 109.954 39.5948C110.268 39.4118 110.739 39.2811 111.444 39.1503L112.176 39.0196C112.542 38.9412 112.83 38.8889 113.039 38.7843C113.248 38.7059 113.458 38.6013 113.667 38.4706V39.6994ZM142.033 33.6863C140.987 32.3791 139.418 31.7255 137.301 31.7255C135.183 31.7255 133.614 32.3791 132.569 33.6863C131.523 34.9935 131 36.536 131 38.2876C131 40.0392 131.523 41.634 132.569 42.915C133.614 44.1961 135.183 44.8235 137.301 44.8235C139.418 44.8235 140.987 44.1699 142.033 42.915C143.078 41.634 143.601 40.0915 143.601 38.2876C143.601 36.4837 143.078 34.9935 142.033 33.6863ZM139.471 41.1373C138.974 41.817 138.242 42.1307 137.301 42.1307C136.359 42.1307 135.627 41.7909 135.131 41.1373C134.608 40.4575 134.373 39.5163 134.373 38.2876C134.373 37.0588 134.634 36.1176 135.131 35.4379C135.627 34.7843 136.359 34.4444 137.301 34.4444C138.242 34.4444 138.974 34.7843 139.471 35.4379C139.967 36.0915 140.229 37.0588 140.229 38.2876C140.229 39.5425 139.967 40.4837 139.471 41.1373Z" fill="white"/>
</svg>
