<svg width="124" height="40" viewBox="0 0 124 40" fill="none" xmlns="http://www.w3.org/2000/svg">
<g clip-path="url(#clip0_68_205)">
<path d="M46.5908 9.29443H50.3544V22.7021C50.3544 25.7894 52.0301 27.4948 55.0881 27.4948C58.1461 27.4948 59.8514 25.76 59.8514 22.7021V9.29443H63.6149V22.9374C63.6149 27.9653 60.3218 31.1408 55.0881 31.1408C49.8839 31.1408 46.5908 27.9947 46.5908 22.9374V9.29443Z" fill="white"/>
<path d="M65.851 30.7879V16.263H69.1734L69.4674 18.1448C70.3788 16.6746 72.1431 15.8219 74.1131 15.8219C77.7591 15.8219 79.6409 18.086 79.6409 21.8495V30.7879H76.0538V22.702C76.0538 20.2616 74.8484 19.0856 72.9958 19.0856C70.7907 19.0856 69.4382 20.6144 69.4382 22.9667V30.7877H65.851V30.7879Z" fill="white"/>
<path d="M81.9044 11.1764C81.9044 9.97092 82.8746 9.02997 84.1096 9.02997C85.2858 9.02997 86.2559 9.97092 86.2559 11.1764C86.2559 12.3818 85.2856 13.3521 84.1096 13.3521C82.8746 13.3521 81.9044 12.3818 81.9044 11.1764ZM82.3161 16.263H85.9032V30.7879H82.3161V16.263Z" fill="white"/>
<path d="M89.4017 16.263V14.4988C89.4017 10.5589 91.4893 8.91223 94.6354 8.91223C95.1941 8.91223 95.8704 8.94162 96.4878 9.05931V12.1173H95.2235C93.4006 12.1173 92.9594 13.0582 92.9594 14.4989V16.2631H96.4289V19.2622H92.9594V30.788H89.4017V19.2622H87.3141V16.2631L89.4017 16.263Z" fill="white"/>
<path d="M104.338 15.8513C108.837 15.8513 112.1 18.9681 112.1 23.4959C112.1 28.024 108.837 31.1407 104.338 31.1407C99.8394 31.1407 96.5756 28.024 96.5756 23.4959C96.5756 18.9681 99.8394 15.8513 104.338 15.8513ZM104.338 27.9358C106.808 27.9358 108.513 26.1422 108.513 23.4959C108.513 20.8498 106.808 19.0562 104.338 19.0562C101.868 19.0562 100.163 20.8498 100.163 23.4959C100.163 26.1423 101.868 27.9358 104.338 27.9358Z" fill="white"/>
<path d="M123.214 19.5267H121.891C119.304 19.5267 117.687 20.9086 117.687 23.7313V30.7879H114.099V16.2924H117.481L117.687 18.4094C118.304 16.9687 119.686 15.9984 121.627 15.9984C122.127 15.9984 122.626 16.0573 123.214 16.2042L123.214 19.5267Z" fill="white"/>
<path d="M35.3906 26.6856H30.5492C30.5394 26.6856 30.53 26.6847 30.5205 26.6837C31.6906 24.6307 32.3592 22.255 32.3592 19.723C32.3592 17.4217 31.8069 15.2494 30.8277 13.3313C30.8568 13.3206 30.8883 13.3142 30.9221 13.3142H35.3906C36.3967 13.3142 36.8038 11.9628 35.9783 11.3875L19.7389 0.608756C18.863 -0.00158407 17.6996 -0.00158407 16.8238 0.608756L0.584325 11.3877C-0.241253 11.9629 0.165822 13.3143 1.17194 13.3143H5.65167C5.68188 13.3143 5.71004 13.3195 5.73657 13.3282C4.75643 15.2471 4.20351 17.4206 4.20351 19.7232C4.20351 22.2554 4.87222 24.6313 6.04256 26.6845C6.03643 26.6849 6.03072 26.6858 6.02446 26.6858H1.17194C0.165822 26.6858 -0.241253 28.0372 0.584325 28.6124L16.8238 39.3912C17.6996 40.0015 18.863 40.0015 19.7389 39.3912L35.9783 28.6124C36.8038 28.0369 36.3967 26.6856 35.3906 26.6856ZM22.5269 28.2398C22.4691 28.3805 22.2654 28.3656 22.2303 28.2176C21.8107 26.4479 20.5287 24.7745 18.3226 24.7745C16.1163 24.7745 14.8344 26.4479 14.4147 28.2175C14.3797 28.3654 14.1759 28.3807 14.1182 28.2402C13.8994 27.7079 13.7786 27.1251 13.7786 26.5139C13.7786 24.0044 15.813 21.9701 18.3224 21.9701C20.8307 21.9701 22.854 23.983 22.8662 26.4913C22.8692 27.1105 22.7484 27.7011 22.5269 28.2398ZM26.126 26.3081C25.8201 27.0342 25.4075 27.684 24.9136 28.2471C24.731 28.4553 24.3928 28.2552 24.4919 27.9972C24.4955 27.9881 24.4983 27.9802 24.5005 27.9741C25.5836 24.846 24.0402 21.3791 20.914 20.0863C17.7868 18.7931 14.213 20.1456 12.7318 23.1107C12.7292 23.1158 12.7262 23.1222 12.7227 23.1298C12.6069 23.3809 12.2258 23.2839 12.2468 23.0086C12.3034 22.2648 12.4793 21.5172 12.785 20.7912C14.3211 17.1434 18.5529 15.4214 22.2368 16.9449C25.9209 18.4685 27.662 22.6606 26.126 26.3081ZM28.9341 21.4697C28.8771 21.8851 28.2778 21.8939 28.2073 21.48C28.1058 20.8836 27.9411 20.2885 27.7091 19.7029C25.9099 15.159 20.4796 12.7429 15.9216 14.5113C11.3636 16.2799 9.40405 21.5632 11.2032 26.1071C11.4352 26.6928 11.7228 27.2403 12.0577 27.746C12.2902 28.0971 11.8443 28.4937 11.5174 28.2274C10.1382 27.1036 9.01943 25.6239 8.31997 23.8573C6.14432 18.3625 8.84868 12.1743 14.3605 10.0357C19.8724 7.89719 26.1043 10.6179 28.2801 16.1128C28.9796 17.8794 29.1745 19.7173 28.9341 21.4697Z" fill="white"/>
</g>
<defs>
<clipPath id="clip0_68_205">
<rect width="123.265" height="40" fill="white" transform="translate(0.0601807)"/>
</clipPath>
</defs>
</svg>
