<svg width="101" height="100" viewBox="0 0 101 100" fill="none" xmlns="http://www.w3.org/2000/svg">
<g clip-path="url(#clip0_250_1245)">
<rect x="13.1665" y="12.5001" width="75" height="75" rx="37.5" fill="#AFB4B4"/>
<rect x="13.1665" y="12.5001" width="75" height="75" rx="37.5" fill="url(#paint0_linear_250_1245)"/>
<path d="M104.451 21.4603L58.9182 21.4603C58.0811 21.4603 57.6626 21.4603 56.8541 21.5599C56.8228 21.5638 56.7156 21.5777 56.6843 21.5819C55.8771 21.692 55.6712 21.7463 55.2592 21.8551C53.116 22.4208 49.3803 23.7074 45.788 26.405C40.3883 30.2418 37.9494 35.6769 37.9494 35.6769C37.5445 36.3822 22.9326 91.424 17.5699 111.652C16.4904 115.724 18.9144 119.886 22.9837 120.976C27.0616 122.069 31.2532 119.649 32.3459 115.571L42.5425 77.5164C43.1676 75.1837 43.4801 74.0174 44.4962 72.3667C44.5373 72.2999 44.6707 72.0904 44.7139 72.0249C45.7799 70.406 46.1174 70.1226 46.7923 69.5559C46.9086 69.4583 47.0239 69.3674 47.1373 69.2849C47.3302 69.1447 47.5446 69.0075 47.7718 68.8748C48.5154 68.4406 48.8871 68.2234 50.4982 67.7645C50.565 67.7455 50.7696 67.6902 50.8368 67.6729C52.4595 67.2567 53.5133 67.2567 55.621 67.2567L104.451 67.2568C108.666 67.2568 112.083 63.8395 112.083 59.624C112.083 55.4086 108.666 51.9913 104.451 51.9913L49.382 51.9913L51.2797 44.9087C51.5494 43.9022 51.6842 43.399 52.2955 42.1838C52.3146 42.1458 52.4065 41.9678 52.4265 41.9303C53.0637 40.7285 53.1453 40.6299 53.3085 40.4329C53.7957 39.8447 54.4183 39.1978 55.1883 38.584C57.1862 36.9915 59.1458 36.7592 59.613 36.7258L104.451 36.7258C108.666 36.7258 112.083 33.3085 112.083 29.093C112.083 24.8776 108.666 21.4603 104.451 21.4603Z" fill="#001B3A"/>
<rect x="46.2783" y="88.2546" width="62.9286" height="0.142857" transform="rotate(-75 46.2783 88.2546)" fill="#001B3A"/>
<rect x="52.4185" y="89.9001" width="62.9286" height="0.142857" transform="rotate(-75 52.4185 89.9001)" fill="#001B3A"/>
<rect x="58.5591" y="91.5454" width="62.9286" height="0.142857" transform="rotate(-75 58.5591 91.5454)" fill="#001B3A"/>
<rect x="64.6997" y="93.1908" width="62.9286" height="0.142857" transform="rotate(-75 64.6997 93.1908)" fill="#001B3A"/>
<rect x="69.874" y="94.5774" width="62.9286" height="0.142857" transform="rotate(-75 69.874 94.5774)" fill="#001B3A"/>
<rect x="50.7383" y="44.5716" width="38.3571" height="0.142857" fill="#001B3A"/>
<rect x="42.7383" y="73.8573" width="38.3571" height="0.142857" fill="#001B3A"/>
<rect x="40.7378" y="80.1429" width="38.3571" height="0.142857" fill="#001B3A"/>
</g>
<defs>
<linearGradient id="paint0_linear_250_1245" x1="24.5538" y1="12.6148" x2="24.5539" y2="87.6148" gradientUnits="userSpaceOnUse">
<stop stop-color="#B0B5B5"/>
<stop offset="1" stop-color="#DDDDDB"/>
</linearGradient>
<clipPath id="clip0_250_1245">
<rect x="13.1665" y="12.5001" width="75" height="75" rx="37.5" fill="white"/>
</clipPath>
</defs>
</svg>
