<svg width="101" height="100" viewBox="0 0 101 100" fill="none" xmlns="http://www.w3.org/2000/svg">
<g clip-path="url(#clip0_250_1213)">
<rect x="12.8335" y="12.5001" width="75" height="75" rx="37.5" fill="#F4C100"/>
<path d="M104.118 21.4604L58.5852 21.4604C57.7481 21.4604 57.3296 21.4604 56.5211 21.56C56.4898 21.5639 56.3826 21.5778 56.3513 21.5821C55.5441 21.6921 55.3382 21.7464 54.9262 21.8552C52.783 22.4209 49.0473 23.7075 45.455 26.4051C40.0553 30.2419 37.6164 35.677 37.6164 35.677C37.2115 36.3823 22.5996 91.4241 17.2369 111.652C16.1574 115.725 18.5814 119.886 22.6507 120.976C26.7286 122.069 30.9202 119.649 32.0128 115.571L42.2095 77.5165C42.8346 75.1838 43.1471 74.0175 44.1632 72.3668C44.2043 72.3 44.3377 72.0905 44.3809 72.025C45.4469 70.4061 45.7844 70.1228 46.4593 69.556C46.5756 69.4584 46.6909 69.3675 46.8043 69.285C46.9972 69.1448 47.2116 69.0076 47.4388 68.8749C48.1824 68.4407 48.5541 68.2236 50.1652 67.7647C50.232 67.7457 50.4366 67.6903 50.5038 67.673C52.1265 67.2569 53.1803 67.2569 55.288 67.2569L104.118 67.2569C108.333 67.2569 111.75 63.8396 111.75 59.6241C111.75 55.4087 108.333 51.9914 104.118 51.9914L49.049 51.9914L50.9467 44.9088C51.2164 43.9024 51.3512 43.3991 51.9625 42.1839C51.9816 42.146 52.0735 41.9679 52.0934 41.9304C52.7307 40.7286 52.8123 40.6301 52.9755 40.433C53.4627 39.8448 54.0853 39.1979 54.8553 38.5841C56.8532 36.9916 58.8128 36.7593 59.28 36.7259L104.118 36.7259C108.333 36.7259 111.75 33.3086 111.75 29.0931C111.75 24.8777 108.333 21.4604 104.118 21.4604Z" fill="#1F1F1F"/>
<path d="M41.7622 23.7859H52.2979" stroke="#1F1F1F" stroke-width="1.78571" stroke-linecap="round"/>
<path d="M15.4766 54.7859H33.6194" stroke="#1F1F1F" stroke-width="1.78571" stroke-linecap="round"/>
<path d="M24.5479 50.0002H35.155" stroke="#1F1F1F" stroke-width="1.78571" stroke-linecap="round"/>
<path d="M33.1191 41.5001H37.5834" stroke="#1F1F1F" stroke-width="1.78571" stroke-linecap="round"/>
<path d="M27.8691 59.2859H34.0477" stroke="#1F1F1F" stroke-width="1.78571" stroke-linecap="round"/>
<path d="M28.1191 63.7859H31.8691" stroke="#1F1F1F" stroke-width="1.78571" stroke-linecap="round"/>
<path d="M27.2622 68.2859H29.3693" stroke="#1F1F1F" stroke-width="1.78571" stroke-linecap="round"/>
<path d="M67.1191 63.7859H71.4049" stroke="#F4C100" stroke-width="1.78571" stroke-linecap="round"/>
<path d="M75.4766 54.7859H86.7266" stroke="#F4C100" stroke-width="1.78571" stroke-linecap="round"/>
<path d="M73.3335 59.2859H77.0478" stroke="#F4C100" stroke-width="1.78571" stroke-linecap="round"/>
<path d="M81.2622 59.2859H85.8693" stroke="#F4C100" stroke-width="1.78571" stroke-linecap="round"/>
<path d="M75.9766 63.7859H84.3337" stroke="#F4C100" stroke-width="1.78571" stroke-linecap="round"/>
<path d="M43.1191 68.2859H53.2977" stroke="#F4C100" stroke-width="1.78571" stroke-linecap="round"/>
<path d="M36.834 72.7145H38.9411" stroke="#F4C100" stroke-width="1.78571" stroke-linecap="round"/>
<path d="M41.9761 72.7145H46.5832" stroke="#F4C100" stroke-width="1.78571" stroke-linecap="round"/>
<path d="M39.834 77.3573H44.3697" stroke="#F4C100" stroke-width="1.78571" stroke-linecap="round"/>
<path d="M60.0479 54.7859H62.155" stroke="#F4C100" stroke-width="1.78571" stroke-linecap="round"/>
<path d="M66.8691 54.7859H71.6191" stroke="#F4C100" stroke-width="1.78571" stroke-linecap="round"/>
<path d="M66.1191 23.7859H77.1906" stroke="#F4C100" stroke-width="1.78571" stroke-linecap="round"/>
<path d="M56.2622 28.5002H58.9051" stroke="#F4C100" stroke-width="1.78571" stroke-linecap="round"/>
<path d="M63.1191 28.5002H67.8691" stroke="#F4C100" stroke-width="1.78571" stroke-linecap="round"/>
<path d="M71.4048 28.5002H80.5834" stroke="#F4C100" stroke-width="1.78571" stroke-linecap="round"/>
<path d="M74.8335 33.2145H85.3692" stroke="#F4C100" stroke-width="1.78571" stroke-linecap="round"/>
<path d="M65.9404 33.2145H68.1547" stroke="#F4C100" stroke-width="1.78571" stroke-linecap="round"/>
<path d="M29.6904 28.5002L50.869 28.5002" stroke="#1F1F1F" stroke-width="1.78571" stroke-linecap="round"/>
</g>
<path d="M15.2617 72.7144H29.0831" stroke="#1F1F1F" stroke-width="1.78571" stroke-linecap="round"/>
<path d="M8.61914 37.0715L39.762 37.0715" stroke="#1F1F1F" stroke-width="1.78571" stroke-linecap="round"/>
<defs>
<clipPath id="clip0_250_1213">
<rect x="12.8335" y="12.5001" width="75" height="75" rx="37.5" fill="white"/>
</clipPath>
</defs>
</svg>
